<?xml version="1.0" encoding="UTF-8"?>
<svg id="Calque_2" data-name="Calque 2" xmlns="http://www.w3.org/2000/svg" viewBox="0 0 1936.58 2784.35">
  <defs>
    <style>
      .cls-1 {
        fill: #efd69c;
      }

      .cls-2 {
        fill: #b92226;
      }

      .cls-3 {
        fill: #fff;
      }

      .cls-4 {
        fill: #d4bc8d;
      }

      .cls-5 {
        fill: #4f2c16;
      }

      .cls-6 {
        fill: #f5fbfd;
      }

      .cls-7 {
        fill: #dec490;
      }
    </style>
  </defs>
  <g id="Layer_1" data-name="Layer 1">
    <g>
      <path class="cls-5" d="M1934.94,2336.24c-19.98-283.91-303.88-320.54-303.88-503.7s84.29-183.79,82.42-335.15c-3.57-289.91-166.71-239.21-157.55-394.9,9.16-155.69,47.66-752.67-492.68-679.86,0,0-219.8-211.1-540.33,72.8-320.54,283.91-109.9,512.86-146.53,631.92-36.63,119.06-228.96,109.9-228.96,311.38s174.01,238.11,137.37,384.65c-28.29,113.18-324.3,248.21-280.35,598.66,265.92,225.97,610.39,362.31,986.7,362.31,355.2,0,682.03-121.47,941.21-325.13,4.33-38.99,5.6-80.13,2.59-122.98Z"/>
      <g>
        <path class="cls-1" d="M1218.42,2087.36l-416.6-235.08c-2.97,71.39-20.27,147.54-69.67,203.12-2.86,3.21-5.7,6.27-8.54,9.24,52.85,46.06,221.09,158.1,494.81,22.72Z"/>
        <path class="cls-4" d="M1230.23,2081.39c-8.53-7.63-17.11-16.23-25.79-25.99-123.54-138.99-46.33-406.66-46.33-406.66h-379.64s27.81,96.4,23.34,203.54l416.6,235.08c3.92-1.94,7.85-3.93,11.81-5.97Z"/>
      </g>
      <path class="cls-2" d="M1657.42,2220.12c-116.68-60.99-200.58-65.98-271.39-75.47-56.98-7.64-105.49-18.23-155.8-63.26-3.96,2.04-7.9,4.03-11.81,5.97-273.72,135.38-441.96,23.34-494.81-22.72-56.63,59.32-109.59,71.5-173.05,80.01-70.82,9.5-154.71,14.48-271.39,75.47-109.67,57.33-150.55,162.93-163.54,287.94,247.76,174.09,549.7,276.29,875.51,276.29,307.99,0,594.65-91.33,834.38-248.38-1.59-42.71-6.07-78.77-15.61-114.86-20.45-77.35-64.15-154.83-152.48-200.99Z"/>
      <g>
        <path class="cls-1" d="M968.29,562.61c-269.95,0-488.78,278.86-488.78,622.85s218.84,622.85,488.78,622.85h0V562.61h0Z"/>
        <path class="cls-7" d="M1457.07,1185.46c0-343.99-218.84-622.85-488.78-622.85v1245.7c269.95,0,488.78-278.86,488.78-622.85Z"/>
      </g>
      <path class="cls-5" d="M1168.97,778.23s-172.86,268.76-677.33,268.76c0,0-23.52-537.52,476.65-537.52s514.7,500.93,514.7,500.93c0,0-96.18-91.78-314.02-232.17Z"/>
      <g>
        <path class="cls-3" d="M927.97,2144.48v638.57c20.95.85,42,1.29,63.16,1.29,7.36,0,14.7-.06,22.03-.16v-639.7h-85.2Z"/>
        <polygon class="cls-3" points="753.62 2025.74 969.54 2144.15 782.73 2284.83 676.99 2088.42 753.62 2025.74"/>
        <polygon class="cls-3" points="1185.47 2018.77 1241.18 2067.53 1156.06 2256.72 969.54 2144.15 1185.47 2018.77"/>
      </g>
      <g>
        <rect class="cls-6" x="771.7" y="54.95" width="393.18" height="398.6"/>
        <path class="cls-2" d="M1359.67,600.78l157.24-121.42S1468.6,27.11,967.82,0C466.96,20.35,419.67,480.15,419.67,480.15l156.74,121.12c79.6-78.23,225.3-130.64,391.88-130.64s311.67,52.18,391.38,130.15ZM797.24,302.34v-103.71h119.12v-119.1h103.73v119.1h119.25v103.71h-119.25v119.2h-103.73v-119.2h-119.12Z"/>
      </g>
    </g>
  </g>
</svg>