<?xml version="1.0" encoding="UTF-8"?>
<svg id="Calque_1" data-name="Calque 1" xmlns="http://www.w3.org/2000/svg" viewBox="0 0 91.15 376.65">
  <defs>
    <style>
      .cls-1 {
        fill: #027f88;
      }

      .cls-2 {
        fill: #008687;
      }

      .cls-3 {
        fill: #fac6a0;
      }

      .cls-4 {
        fill: #ef7c72;
      }

      .cls-5 {
        fill: #3d303a;
      }

      .cls-6 {
        fill: #da8d54;
      }

      .cls-7 {
        fill: #45bbc7;
      }

      .cls-8 {
        fill: #878c8e;
      }

      .cls-9 {
        fill: #0c9d9e;
      }

      .cls-10 {
        fill: #fff;
      }

      .cls-11 {
        fill: #fac89d;
      }

      .cls-12 {
        fill: #dc6364;
      }

      .cls-13 {
        fill: #f5a581;
      }

      .cls-14 {
        fill: #834a27;
      }

      .cls-15 {
        fill: #97d3e1;
      }

      .cls-16 {
        fill: #f2948b;
      }

      .cls-17 {
        fill: #8fd1df;
      }

      .cls-18 {
        fill: #c77143;
      }

      .cls-19 {
        fill: #05626b;
      }
    </style>
  </defs>
  <path class="cls-19" d="M74.3,366.33c5.51,1.12,13.83,4.66,13.83,8.16s-17.82,2-20.99.67c-3.16-1.33-4.33-11.16,7.16-8.83Z"/>
  <path class="cls-19" d="M39.64,366.33c5.51,1.12,13.83,4.66,13.83,8.16s-17.82,2-20.99.67c-3.16-1.33-4.33-11.16,7.16-8.83Z"/>
  <path class="cls-1" d="M47.23,367.44c-.79.27-1.56.62-2.32,1.01-.33-.32-.66-.62-.99-.93-.68-.64-1.64.33-1.02,1.02.21.24.41.48.61.73-.69.46-1.34.96-1.91,1.55-1.02,1.06.52,2.57,1.6,1.6.56-.5,1.12-.96,1.7-1.39.32.41.65.82,1.01,1.2.67.72,1.9-.22,1.37-1.05-.25-.4-.55-.78-.86-1.15.43-.24.87-.47,1.34-.66,1.15-.47.71-2.35-.53-1.92Z"/>
  <path class="cls-1" d="M83.62,369.87c-.19-.11-.38-.21-.58-.32.21-.12.43-.25.64-.36,1.02-.52.12-2-.89-1.52-.52.25-1.06.53-1.59.85-.44-.26-.88-.53-1.31-.83-.62-.44-1.17.47-.76.98.22.27.45.54.68.81-.56.45-1.06.95-1.44,1.51-.63.91.67,1.65,1.4,1.08.48-.38.92-.81,1.38-1.22.41.37.83.73,1.28,1.03,1.25.83,2.49-1.26,1.18-2.02Z"/>
  <path class="cls-9" d="M29.5,99.77c7.93-2.91,28.6-5.24,35.56-1.06,6.97,4.18-8.05,12.94-8.05,12.94l-11.83-2.05-11.95-.91-3.73-8.92Z"/>
  <path class="cls-18" d="M29.02,88.52c14.66,8.24,31.3,2.47,37.24-1.65,5.93-4.12,9.06-19.44,8.9-19.94-.17-.49-2.31-7.74-4.28-9.06-1.98-1.32-22.74-.49-24.55-.49s-18.95,3.62-20.1,3.95-5.93,6.92-5.93,6.92l.82,7.74,7.91,12.52Z"/>
  <path class="cls-3" d="M87.37,138.19s.9,57.18,1.5,60.63,2.55,5.54,2.25,9.73c-.3,4.19-.9,5.69-3.14,8.68-2.24,2.99-5.39,3.89-6.59,2.55s2.55-3.74,3.74-4.94c1.2-1.2.9-4.94.9-4.94,0,0-.9,2.7-2.7,2.84-1.8.15-1.35-4.64-.75-6.89.6-2.24.75-7.04.6-8.08-.15-1.05-5.84-54.64-5.84-58.08,0-3.44,8.38-4.04,10.03-1.5Z"/>
  <path class="cls-3" d="M78.44,353.84s0,10.97-1.59,14.51-6.19,2.48-8.14.18-2.48-16.28-2.48-16.28l12.21,1.59Z"/>
  <path class="cls-3" d="M42.7,353.84s0,10.97-1.59,14.51-6.19,2.48-8.14.18-2.48-16.28-2.48-16.28l12.21,1.59Z"/>
  <path class="cls-9" d="M16.5,208.05s4.51,70.33,5.57,82.54c1.06,12.21,4.51,61.84,5.84,64.49s11.94,2.65,14.86,1.59c2.92-1.06,3.71-60.24,3.98-71.39.27-11.15-1.09-49.96,3.98-49.36,4.51.53,7.43,40.07,8.49,50.69,1.06,10.62,3.45,67.14,5.04,69.27,1.59,2.12,11.68,3.45,14.86,1.33,3.18-2.12,2.92-62.87,3.18-79.09.27-16.19.53-70.33-.27-74.31-.8-3.98-65.55,4.25-65.55,4.25Z"/>
  <path class="cls-3" d="M39.67,77.65s.18,11.85-1.59,16.63-10.79,7.25-10.79,7.25l12.92,15.92,11.32.53,7.96-4.78,5.66-13.09s-6.37-1.24-7.96-5.84c-1.59-4.6-2.65-18.05-2.65-18.05l-14.86,1.42Z"/>
  <path class="cls-7" d="M89.32,138.6c-3.35-10.04-6.12-31.93-13.9-35.47-3.43-1.56-10.35-4.42-10.35-4.42-5.9,12.05-16.72,15.66-16.72,15.66-11.68-3.18-18.84-14.6-18.84-14.6,0,0-10.35,2.12-13.54,4.95S-.84,138.52.04,139.58s16.81,4.42,16.81,4.42c.18,1.06-4.07,61.93-3.54,64.84s56.05,8.46,70.86-.8c2.12-1.33-6.64-61.93-7.17-64.58,1.06-.88,13.2-2.21,12.31-4.87Z"/>
  <path class="cls-7" d="M25.51,29.04c-.72-2.82,2.52-22.05,5.86-25.72s26.68-4.38,30.48-1.74c3.8,2.63,5.73,22.9,5.83,25.92.09,3.02-41.27,5.09-42.17,1.55Z"/>
  <ellipse class="cls-3" cx="46.75" cy="55.52" rx="25.57" ry="31.58"/>
  <path class="cls-18" d="M29.02,88.52s-12.03-33.94,4.12-51.07c0,0-4.45,8.9-3.79,13.51,0,0,6.76,1.32,11.2.82l2.47-8.07,1.48,7.91s8.73,0,12.19-.17l.66-5.93,2.14,5.27h2.97s1.15-5.6-.99-12.19c0,0,15.98,25.21,4.45,48.77,0,0,18.62-7.41,17.14-32.79s-13.67-37.57-35.92-37.57S15.06,31.69,11.88,51.28c-4.28,26.36,17.14,37.24,17.14,37.24Z"/>
  <path class="cls-5" d="M32.17,113.12s-3.17-10.66-2.17-12.99c1-2.33-2-2.5-3.17-.5-1.17,2,1.5,14.33,3.17,15.83,1.67,1.5,2.17-2.33,2.17-2.33Z"/>
  <path class="cls-5" d="M62.87,113.12s3.17-10.66,2.17-12.99c-1-2.33,2-2.5,3.17-.5,1.17,2-1.5,14.33-3.17,15.83-1.67,1.5-2.17-2.33-2.17-2.33Z"/>
  <path class="cls-8" d="M31.21,109.92c-10.87,2.17-5.92,17.76,2.69,14.8s5.38-16.42-2.69-14.8Z"/>
  <path class="cls-10" d="M31.51,112.79c-6.73,1.35-3.67,11,1.67,9.16,5.33-1.83,3.33-10.16-1.67-9.16Z"/>
  <g>
    <path class="cls-15" d="M48.07,5.21c-.74-1.28-2.65-1.28-3.4,0-1.26,2.16-.57,5.81-.2,8.17.16,1,.86,1.42,1.62,1.41.9.11,2.01-.46,2.17-1.41.38-2.37,1.07-6.01-.19-8.17Z"/>
    <path class="cls-15" d="M50.69,11.23c1.28-.74,1.28-2.65,0-3.4-2.16-1.26-5.81-.57-8.17-.19-1,.16-1.42.86-1.41,1.62-.11.9.46,2.01,1.41,2.17,2.36.38,6.01,1.07,8.17-.19Z"/>
  </g>
  <path class="cls-9" d="M20.26,125.03c-.03-.39-.54-.46-.68-.09-1.11,2.97-1.18,6.52-1.63,9.65-.42,2.94-.92,5.89-1.13,8.85-.03.44.66.53.77.1.78-3.16,1.2-6.43,1.67-9.65.42-2.85,1.23-5.98,1-8.86Z"/>
  <path class="cls-9" d="M75.86,133.76c-.47-2.82-.57-6.07-1.71-8.7-.08-.18-.41-.14-.44.06-.39,2.73.42,5.76.87,8.46.49,2.94.65,6.53,2.11,9.16.12.22.42.1.44-.12.3-2.87-.79-6.03-1.27-8.85Z"/>
  <path class="cls-6" d="M37.34,34.37c-1.84,3.16-3.77,6.86-4.09,10.55-.16,1.85,2.79,1.87,2.9,0,.18-3.15,1.7-6.66,3.01-9.49.57-1.21-1.13-2.26-1.83-1.07Z"/>
  <path class="cls-6" d="M37.85,42.88c-.32,1.04-.66,2.07-.96,3.12-.39,1.36,1.76,1.95,2.11.58.27-1.05.51-2.11.77-3.17.3-1.25-1.54-1.76-1.92-.53Z"/>
  <path class="cls-6" d="M45.59,40.88c.09-.47-.13-.96-.62-1.1-.42-.11-1.03.14-1.1.62-.11.77-.13,1.61.28,2.3.38.66,1.58.42,1.51-.41-.04-.49-.16-.93-.07-1.42Z"/>
  <path class="cls-6" d="M53.75,41.49c-.59-2.5-1.65-4.83-3.04-6.98-.5-.77-1.61-.1-1.22.71,1.14,2.36,1.88,4.82,2.07,7.44.13,1.81-.37,3.61.48,5.25.34.67,1.2.5,1.58,0,1.3-1.73.6-4.45.14-6.42Z"/>
  <path class="cls-6" d="M59.08,40.18c-.09-.84-1.42-.85-1.33,0,.07.61.13,1.23.2,1.84.03.31.19.54.49.64.19.07.34.04.51-.07.18-.11.35-.35.33-.57-.07-.61-.13-1.23-.2-1.84Z"/>
  <path class="cls-6" d="M31.46,25.8c-2.94,2.97-5.57,6.2-7.79,9.75-1.83,2.94-4.58,6.94-4.4,10.53.03.63.88,1.11,1.35.56,2.21-2.6,2.93-6.46,4.52-9.49,1.98-3.77,4.43-7.24,7.23-10.45.54-.62-.32-1.5-.91-.91Z"/>
  <path class="cls-6" d="M30.31,33.51c-.48.82-.95,1.63-1.43,2.44-.42.71-.89,1.34-.96,2.18-.03.29.36.51.59.34.68-.49.98-1.21,1.38-1.92.46-.82.92-1.65,1.38-2.47.35-.63-.6-1.19-.97-.56Z"/>
  <path class="cls-6" d="M67.14,38.32c-.64-.96-1.43-1.81-2.32-2.53-.41-.33-.95.18-.59.59.71.79,1.3,1.66,1.75,2.62.33.71.46,1.99,1.23,2.33.27.12.57.07.74-.19.54-.84-.33-2.1-.81-2.82Z"/>
  <path class="cls-6" d="M67.96,31.49c-.44-.66-1.5-.06-1.08.63,2.25,3.64,4.77,7.23,6.32,11.25,1.16,3.01,1.15,6.44,2.65,9.26.3.57,1.16.4,1.33-.17,2.07-7.03-5.69-15.63-9.22-20.96Z"/>
  <path class="cls-6" d="M78.41,40.14c-.72-1.54-1.7-2.92-2.9-4.11-.67-.66-1.64.33-1.03,1.03.98,1.12,1.77,2.38,2.3,3.77.46,1.19,2.18.49,1.63-.69Z"/>
  <path class="cls-2" d="M32.51,354.19c-.73-1.12-1.23-2.25-1.42-3.59-.15-1.05-1.87-.79-1.83.25.05,1.58.45,3.14,1.32,4.47.79,1.2,2.73.08,1.93-1.13Z"/>
  <path class="cls-2" d="M35.87,353.86c-.22-1.19-.44-2.37-.66-3.56-.12-.64-.89-1-1.48-.84-.69.19-.93.83-.84,1.48.17,1.2.34,2.4.5,3.6.1.69.97,1.06,1.58.9.72-.2,1.02-.9.9-1.58Z"/>
  <path class="cls-2" d="M39.61,351.03c-.31-1.12-2.17-.94-2.08.28.09,1.2,0,2.38-.01,3.57,0,1.69,2.41,1.62,2.57,0,.13-1.3-.14-2.61-.48-3.86Z"/>
  <path class="cls-2" d="M67.4,353.63c-.2-.84-.23-1.68-.14-2.54.1-.99-1.58-1.23-1.75-.24-.18,1.01-.23,2.01-.08,3.03.13.96.28,1.99,1.28,2.35.31.11.77-.07.91-.37.39-.81-.02-1.42-.21-2.23Z"/>
  <path class="cls-2" d="M71.9,355.67c-.36-1.38-.72-2.76-1.08-4.14-.29-1.13-1.91-.64-1.72.47.24,1.41.48,2.83.73,4.24.23,1.34,2.42.79,2.07-.57Z"/>
  <path class="cls-2" d="M74.85,352.68c-.02-1.28-1.97-1.28-1.99,0-.02,1.05-.04,2.1-.06,3.15-.02,1.36,2.14,1.36,2.11,0-.02-1.05-.04-2.1-.06-3.15Z"/>
  <path class="cls-2" d="M76.1,351.99c-.08.95-.3,2-.2,2.94.06.55.38,1.02.97,1.1.54.06,1.08-.25,1.22-.8.26-1.02.19-2.18.25-3.24.08-1.45-2.12-1.42-2.24,0Z"/>
  <path class="cls-17" d="M70.28,131.71c.07-.75-.39-1.32-1.11-1.48-3.2-.74-6.35-.89-9.56-.47-.84-.04-1.66-.03-2.44.04-1.56.14-2.33.68-2.71,2.23-1.09,4.51-.61,10.35,2.78,13.78,2.71,2.74,6.1,3.87,8.98,1,1.58-1.57,3.03-3.52,3.65-5.68.88-3.05.1-6.29.4-9.4Z"/>
  <path class="cls-10" d="M54.41,124.62s-1.83,8.58,1.58,11.99c.33.33,1.75-.17,2.08.42.33.58-.58,3.16-1.25,3.58-.67.42-1.75-.33-2.08-1.25s-6.08-4.83-1.75-15.33l1.41.58Z"/>
  <path class="cls-10" d="M68.86,126.92s-.84,8.73-5.13,10.96c-.42.22-1.62-.69-2.11-.23s-.4,3.19.11,3.79c.51.6,1.77.21,2.36-.56.59-.77,7.26-2.77,6.3-14.08l-1.53.13Z"/>
  <path class="cls-8" d="M54.83,125.45c2.56-4.26,3.22-10.33,8.77-9.33,5.55,1,4.67,9.22,4.67,10.44s1.89,2.11,2.78,1c.89-1.11,3-13.33-6.22-14.66s-11.24,7.39-12.33,10.66c-.78,2.33,1.67,3,2.33,1.89Z"/>
  <path class="cls-17" d="M83.04,205.21c-11.15,4.29-23.18,5.1-35.01,4.8-11.61-.29-23.86-.86-35.08-4.06-1.55-.44-2.16,1.59-1.02,2.46,4.44,3.41,9.51,4.17,14.92,4.84,7.01.87,14.12,1.38,21.18,1.55,12.2.3,25.44-.3,36.79-5.32,2.37-1.05.67-5.23-1.78-4.28Z"/>
  <path class="cls-11" d="M43.08,168.82c3.77,1.03,21.01,12.93,21.7,14.13s-17.36,33.18-18.36,34.79c-.99,1.6-4.28,1.01-4.28,1.01l-3.95-48.73,4.89-1.2Z"/>
  <path class="cls-12" d="M37.54,169.59c-1.61,1.8-19.73,32.39-19.58,35.01s22.95,14.37,24.18,14.15,18.42-33.71,18.67-34.65-18.14-11.38-19.45-12.71c-1.31-1.32.64-2.51,1.72-2.57,0,0-3.49-1.51-5.53.77Z"/>
  <path class="cls-3" d="M51.79,208.53c-1.85-.42-6-1.86-7.49-2.38,1.23.42,4.27,1.35,6.26,1.05,2.54-.37,2.66-2.24,1.02-2.61-3.18-.72-11.04-6.36-11.04-6.36,0,0,3.11-2.5,1.65-3.81-1.47-1.31-12.4,2.55-13.38,1.67-10.51-9.41-14.08-35.93-14.38-41.26-.17-3.01.91-7.56,1.88-10.96-2.16-.46-10.23-2.22-14.15-3.43-.99,7.3-1.21,19.54,3.57,33.46,7.21,20.97,18.75,28,19.54,29.58s10.69,8.47,14.95,9.86c4.26,1.39,8.96,3.07,8.87.67-.04-.9-4.17-3.01-6.17-3.98,1.72.78,5.22,2.17,7.92,2.02,3.71-.21,2.61-3.17.97-3.54Z"/>
  <path class="cls-13" d="M39.53,209.45c-.56-.33-1.19-.39-1.6.17-.12.16-.08.39,0,.55.27.55.94.56,1.46.37.46-.18.61-.81.14-1.09Z"/>
  <path class="cls-13" d="M41.63,206.9c-.33-.55-.9-.89-1.55-.69-.6.19-.62,1.05,0,1.23.25.07.53.11.75.25.5.31,1.08-.3.79-.8Z"/>
  <path class="cls-13" d="M43.92,203.43c-.13-.15-.34-.17-.51-.14-.03,0-.05.01-.08.02-.15.03-.3.18-.33.33-.02.11-.02.2.02.31.02.07.07.12.11.18.02.03.05.06.08.08-.09.47.58.67.84.29.24-.36.13-.75-.13-1.06Z"/>
  <path class="cls-16" d="M52.33,185.89c-1.06-1.91-3.49-2.27-5.38-3.12-2.05-.91-4.08-1.87-6.01-3.03-1.28-.77-2.83,1.11-1.63,2.12,1.82,1.54,3.61,3.09,5.57,4.46,1.92,1.34,3.79,3.05,6.23,2.56,1.33-.27,1.81-1.91,1.21-2.99Z"/>
  <path class="cls-16" d="M46.18,189.03c-1.62-.77-3.23-1.64-4.73-2.65-.92-.63-1.87.73-1.16,1.5,1.33,1.42,2.77,2.61,4.46,3.58.39.23,1.04.3,1.42,0,.45-.35.68-.62.7-1.22.02-.46-.27-1.01-.7-1.22Z"/>
  <path class="cls-18" d="M40.69,55.83c-.85-.97-2.24-1.08-3.42-.72-.56.17-1.08.51-1.48.95-.49.55-.57,1.65.2,2.04.76.38,1.39-.01,2.15-.17.51-.1,1.08.02,1.66.02,1.13-.01,1.57-1.33.88-2.12Z"/>
  <path class="cls-18" d="M54.54,55.83c.85-.97,2.24-1.08,3.42-.72.56.17,1.08.51,1.48.95.49.55.57,1.65-.2,2.04-.76.38-1.39-.01-2.15-.17-.51-.1-1.08.02-1.66.02-1.13-.01-1.57-1.33-.88-2.12Z"/>
  <path class="cls-14" d="M40.59,61.5c-.05-.21-.11-.4-.19-.58-.7-1.63-2.69-1.93-3.72-.5-.89,1.24-.6,3.49.04,4.77.55,1.12,1.77,1.56,2.79.81,1.18-.86,1.44-3.03,1.08-4.5Z"/>
  <path class="cls-14" d="M58.86,61.5c-.05-.21-.11-.4-.19-.58-.7-1.63-2.69-1.93-3.72-.5-.89,1.24-.6,3.49.04,4.77.55,1.12,1.77,1.56,2.79.81,1.18-.86,1.44-3.03,1.08-4.5Z"/>
  <path class="cls-10" d="M37.55,60.42c-1.36,0-1.36,2.12,0,2.12s1.36-2.12,0-2.12Z"/>
  <path class="cls-10" d="M56.15,60.42c-1.36,0-1.36,2.12,0,2.12s1.36-2.12,0-2.12Z"/>
  <path class="cls-13" d="M49.69,68.4c-.62-.17-1.11.23-1.72.27-.63.05-1.21-.04-1.76-.35-.57-.32-1.19.45-.7.91.64.61,1.47,1.05,2.36,1.12.91.07,1.99-.09,2.36-1.01.16-.38-.17-.84-.54-.94Z"/>
  <path class="cls-13" d="M50.24,76.18c-.75-.13-1.38.2-2.12.26-.8.06-1.61-.09-2.32-.46-.92-.47-1.6.77-.8,1.36.74.55,1.59.89,2.49.99-.55.15-.7,1.03-.04,1.14.51.09.9.17,1.38-.07.23-.11.25-.45.08-.62-.26-.26-.51-.35-.82-.41.95,0,2.1-.21,2.58-1.1.21-.38.05-1.01-.45-1.1Z"/>
  <path class="cls-4" d="M65.07,66.23c-1.85-.91-4.73-.66-5.7.9-.93,1.5.18,3.31,1.86,3.39,1.85.09,6.3.55,5.4-2.6-.21-.75-.8-1.32-1.56-1.69Z"/>
  <path class="cls-4" d="M34.68,66.23c-1.85-.91-4.73-.66-5.7.9-.93,1.5.18,3.31,1.86,3.39,1.85.09,6.3.55,5.4-2.6-.21-.75-.8-1.32-1.56-1.69Z"/>
  <path class="cls-13" d="M53.57,86.07c-2.06.76-3.8,1.67-6.07,1.72-2.33.06-4.69-.63-6.79-1.62-.29-.14-.64.23-.37.48,3.52,3.13,10.15,3.84,13.8.42.42-.39-.01-1.2-.58-.99Z"/>
  <path class="cls-17" d="M62.13,100.47c-3.77,4.8-7.01,10.77-14.05,10.92-6.05.13-13.05-5.79-16.54-10.33-.7-.9-2.25-.07-1.58.92,3.8,5.61,10.89,13.46,18.5,13.03,6.53-.37,15.37-6.95,15.59-13.76.03-.9-1.3-1.57-1.91-.79Z"/>
</svg>