<?xml version="1.0" encoding="UTF-8"?>
<svg id="Calque_2" data-name="Calque 2" xmlns="http://www.w3.org/2000/svg" viewBox="0 0 126.69 329.59">
  <defs>
    <style>
      .cls-1 {
        fill: #03776e;
      }

      .cls-2 {
        fill: #b5b5b5;
      }

      .cls-3 {
        fill: #cecece;
      }

      .cls-4 {
        fill: #c11b33;
      }

      .cls-5 {
        fill: #576f7f;
      }

      .cls-6 {
        fill: #e8afa6;
      }

      .cls-7 {
        fill: #ffdcd2;
      }

      .cls-8 {
        fill: #ffa1be;
      }

      .cls-9 {
        fill: #8c5238;
      }

      .cls-10 {
        fill: #079995;
      }

      .cls-11 {
        fill: #0db7b7;
      }

      .cls-12 {
        fill: #fff;
      }

      .cls-13 {
        fill: #f9f9f9;
      }

      .cls-14 {
        fill: #f4c4ba;
      }

      .cls-15 {
        opacity: .25;
      }

      .cls-16 {
        fill: #282828;
      }

      .cls-17 {
        fill: #43535b;
      }

      .cls-18 {
        fill: #fdffff;
      }

      .cls-19 {
        fill: #068983;
      }
    </style>
  </defs>
  <g id="OBJECTS">
    <g>
      <ellipse class="cls-15" cx="63.35" cy="317.64" rx="63.35" ry="11.96"/>
      <g>
        <g>
          <path class="cls-18" d="M87,310.49s-.39,5.93,1.66,7.03,17.61,2.68,17.84-1.97-11.19-5.61-11.75-6.47-7.75,1.41-7.75,1.41Z"/>
          <path class="cls-18" d="M18.97,310.82s-1.16,6.17.86,7.58,18.12,5.02,18.95.17-11.03-7.28-11.51-8.26-8.3.51-8.3.51Z"/>
        </g>
        <g>
          <path class="cls-1" d="M63.94,168.99c7.64-2.01,12.59-3.81,15.75-5.2-1.12-3.91-1.8-5.75-1.8-5.75l-39.05.65s-1.11,4.73-2.77,12.34c5.7.62,16.19,1.04,27.88-2.04Z"/>
          <path class="cls-19" d="M89.61,214.53c-3.7-26.68-7.68-42.9-9.92-50.75-3.15,1.39-8.11,3.19-15.75,5.2-11.68,3.08-22.17,2.66-27.88,2.04-3.55,16.31-9.62,45.88-12.66,70.67-4.46,36.36-5.88,68.8-5.88,68.8,0,0,6.79,3.07,12.4,0l30.61-110.7s24.41,105.49,26.46,110.7c0,0,5.86,2.14,7.75-1.41,0,0,.41-54.57-5.13-94.55Z"/>
        </g>
        <path class="cls-9" d="M58.2,6.29s-18.49-14.97-38.07,1.29C.55,23.84,7.65,93.47,7.65,93.47c0,0-7.11,2.68-6.63,11.21s5.37,9,5.37,9c0,0-3.32,3,.16,9.08s13.42,4.34,13.42,4.34c0,0,2.21,2.84,12.79,3.95s16.47-4.89,16.47-4.89c0,0,8.48,9.27,19.69,5.03s10.26-9.86,10.26-9.86c0,0,7.13,2.01,10.43-2.9s-2.62-8.07-2.62-8.07c0,0,6.55.47,8.45-7.42s-7.42-10.98-7.42-10.98c0,0,9.63-65-9.99-82.81-8.52-7.74-19.83-2.87-19.83-2.87Z"/>
        <g>
          <path class="cls-12" d="M24.41,226.46s-2.47-5.01-2.86-7.38,3.79-4.97,11.05-8.37,12.07-4.42,13.89-2.61,4.11,6.39,4.11,6.39l4.97-2.76s-3.71-6.71-8.29-10.5-12.83.71-18.49,3.87c-5.66,3.16-13.32,6.87-13.24,11.76s4.09,12.4,4.09,12.4l4.77-2.81Z"/>
          <g>
            <g>
              <path class="cls-3" d="M22.2,247.33l3.28-2.36s-5.51-8.26-8.24-14.87l-3.52,1.79c2.12,5.76,5.64,14.17,8.49,15.45Z"/>
              <path class="cls-3" d="M89.56,240.17l-8.91-17.56-69.6,30.27,10.94,21.56c2.83,5.58,9.7,7.82,15.28,5l47.29-23.98c5.58-2.83,7.82-9.7,5-15.28Z"/>
              <path class="cls-3" d="M62.88,228.85l3.14-2.55s-7.02-9.34-9.79-15.98l-3.47,1.76c2.29,5.48,6.87,15.53,10.12,16.77Z"/>
              <path class="cls-12" d="M75.84,213.12c-2.83-5.58-9.7-7.82-15.28-5l-4.33,2.2c2.77,6.64,9.79,15.98,9.79,15.98l-3.14,2.55c-3.25-1.24-7.83-11.29-10.12-16.77l-35.52,18.01c2.73,6.61,8.24,14.87,8.24,14.87l-3.28,2.36c-2.85-1.28-6.36-9.69-8.49-15.45l-.44.23c-5.58,2.83-7.82,9.7-5,15.28l2.78,5.49,69.6-30.27-4.81-9.49Z"/>
            </g>
            <g>
              <g>
                <circle class="cls-2" cx="65.31" cy="229.89" r="4.77"/>
                <circle class="cls-2" cx="24.41" cy="248.27" r="4.77"/>
              </g>
              <path class="cls-2" d="M35.21,271.63c-1.43-2.92,40.36-24.54,43.86-21.2s-42.33,24.32-43.86,21.2Z"/>
              <polygon class="cls-4" points="44.75 224.7 41.27 226.46 39.61 223.2 36.17 224.94 37.83 228.2 34.35 229.97 36.09 233.41 39.57 231.64 41.45 235.34 44.88 233.6 43.01 229.9 46.49 228.13 44.75 224.7"/>
            </g>
          </g>
        </g>
        <g>
          <g>
            <polygon class="cls-14" points="85.22 137.28 87 151.45 79.86 159.55 75.63 137.92 85.22 137.28"/>
            <path class="cls-11" d="M70.1,98.29s11.84,9.39,15.87,19.74,3.63,17.13,3.63,17.13c0,0-7.6,4.76-13.24,3.05s-6.26-39.92-6.26-39.92Z"/>
          </g>
          <g>
            <path class="cls-11" d="M63.29,94.22c-3.48-1.7-6.81-3.04-6.81-3.04l-12.5-.98c-1.27,1.37-4.23,2.79-7.37,4.02,5.16,5.06,12.53,11.59,16.14,11.59,1.75,0,6.69-6.29,10.54-11.59Z"/>
            <path class="cls-10" d="M73.89,124.22s3.32-1.78,2.37-10.3-6.16-15.63-6.16-15.63c-1.43-1.28-4.16-2.78-6.81-4.07-3.85,5.3-8.79,11.59-10.54,11.59-3.61,0-10.98-6.53-16.14-11.59-4.92,1.92-10.29,3.36-10.29,3.36l12.52,61.1s6.75,4.62,19.36,4.05c12.61-.57,19.69-4.7,19.69-4.7,1.04-9.29-4-33.81-4-33.81Z"/>
          </g>
          <g>
            <g>
              <path class="cls-14" d="M28.5,154.98c.72-4.35,1.42-7.04,1.42-7.04l-13.34-1.42s-.58,2.86-1.01,7.38c2,.63,4.55,1.18,7.7,1.35,2.13.11,3.84-.01,5.23-.27Z"/>
              <path class="cls-7" d="M32.6,198.16s-6.28-13.26-5.53-29.76c.24-5.21.84-9.86,1.42-13.41-1.39.25-3.1.38-5.23.27-3.14-.17-5.7-.72-7.7-1.35-.57,6.12-.85,15.29,1.01,24.6,3.24,16.18,7.58,21.79,7.58,21.79,0,0-4.27,2.45-1.7,9.16s5.33,8.76,8.02,8.21c2.68-.55,1.82-3.47,1.82-3.47,0,0,2.53,2.61,4.82,1.66,2.29-.95,1.58-3.55,1.58-3.55,0,0,1.58.55,3.39-1.03,1.82-1.58-3.32-13.18-9.47-13.11Z"/>
            </g>
            <path class="cls-11" d="M26.95,97.82c-4.82-3.54-21.51,31.74-21.51,42.87,0,0,4.38,5.68,17.88,6.99,13.5,1.3,16.11-2.25,16.11-2.25,0,0,1.22-37.54-12.48-47.61Z"/>
          </g>
        </g>
        <g>
          <g>
            <path class="cls-17" d="M99.67,141.57s1.05-2.19,2.38-2.73,5.24.65,8.62,2.73c3.38,2.07,5.92,4.38,6.1,5.74.18,1.36-2.14,4.13-2.14,4.13l-14.95-9.87Z"/>
            <g>
              <rect class="cls-5" x="74.88" y="142.74" width="37.41" height="52.16" rx="2.47" ry="2.47" transform="translate(108.52 -23.63) rotate(33.44)"/>
              <path class="cls-12" d="M94.81,146.92c1.38-2.32,17.76,6.63,16.58,9.24s-17.84-7.11-16.58-9.24Z"/>
            </g>
          </g>
          <path class="cls-7" d="M107.25,171.34c.79-1.26,8.33-1.34,9.12,4.34.79,5.68-3.36,9.28-7.07,9.2s-7.98-3.08-7.15-4.86,5.33.51,5.53.43.32-.12.32-.39-4.66-2.33-3.79-4.5,5.93,1.38,6.3,1.14.37-.59.37-.59c0,0-4.82-2.88-3.63-4.78Z"/>
        </g>
        <g>
          <g>
            <path class="cls-14" d="M50.09,88.4c2.39-.09,4.6-.44,6.59-.89.04-1.54.02-3.15-.19-3.9-.47-1.66-12.5-1.75-12.5-1.75,0,0,.67,3.28.53,5.93,1.51.44,3.35.71,5.58.62Z"/>
            <path class="cls-7" d="M50.09,88.4c-2.23.09-4.07-.18-5.58-.62-.05.95-.2,1.82-.53,2.42l6.7,6.22,5.8-5.24s.14-1.79.19-3.67c-1.98.45-4.2.8-6.59.89Z"/>
          </g>
          <g>
            <g>
              <path class="cls-14" d="M26.05,50.92s-9.71.57-7.82,10.41,13.03,5.62,13.03,5.62l-5.21-16.03Z"/>
              <path class="cls-6" d="M23.52,57.08s-1.82,1.03-1.18,3.63,3.39,1.66,3.39,1.66c0,0-2.53-2.13-2.21-5.29Z"/>
            </g>
            <g>
              <path class="cls-14" d="M71.74,35.12s7.24-.89,9.85,6.51-4.61,10.36-4.61,10.36l-5.24-16.86Z"/>
              <path class="cls-6" d="M75.71,40.66s1.66-.32,2.37,1.66-.87,2.92-.87,2.92c0,0,.24-3.47-1.5-4.58Z"/>
            </g>
          </g>
          <g>
            <path class="cls-14" d="M53.82,39.26c6.08-7.63,9.05-12.98,10.49-16.51-2.36-3-4.03-4.39-4.03-4.39-9.05,23.51-34.23,32.57-34.23,32.57,0,0,.05,1.09.91,4.07,6.56-1.15,18.07-4.7,26.86-15.73Z"/>
            <path class="cls-7" d="M75.71,45.7c-3.37-11.29-8.07-18.72-11.4-22.95-1.44,3.53-4.41,8.88-10.49,16.51-8.79,11.03-20.31,14.59-26.86,15.73.82,2.86,2.39,7.46,5.37,14.52,6.09,14.4,20.25,16.58,31.58,12.32s17.57-16.82,11.81-36.13Z"/>
          </g>
          <g>
            <ellipse class="cls-8" cx="36.27" cy="61.42" rx="3.36" ry="2.29" transform="translate(-16.23 13.13) rotate(-16.83)"/>
            <ellipse class="cls-8" cx="69.51" cy="53.13" rx="3.36" ry="2.29" transform="translate(-12.4 22.39) rotate(-16.83)"/>
            <ellipse class="cls-16" cx="60.65" cy="43.9" rx="2.52" ry="3.97" transform="translate(-12.64 28.57) rotate(-24.08)"/>
            <ellipse class="cls-16" cx="37.56" cy="53.13" rx="2.52" ry="3.97" transform="translate(-18.41 19.95) rotate(-24.08)"/>
            <path class="cls-14" d="M57.47,48.24s4.66,4.5,5.61,8.84-2.8,4.97-2.8,4.97c0,0,3.75-2.45-2.8-13.82Z"/>
            <path class="cls-9" d="M60.35,31.66c1.32-2.39,8.09,1.11,7.07,3.55s-7.9-2.05-7.07-3.55Z"/>
            <path class="cls-13" d="M45.35,65.17s.91,4.11,3.75,4.78,4.46-1.78,4.46-1.78c0,0-1.6,5.98-6.28,3.79-3.79-1.78-1.93-6.79-1.93-6.79Z"/>
          </g>
        </g>
      </g>
    </g>
  </g>
</svg>