<?xml version="1.0" encoding="UTF-8"?>
<svg id="Calque_2" data-name="Calque 2" xmlns="http://www.w3.org/2000/svg" viewBox="0 0 34.17 110.7">
  <defs>
    <style>
      .cls-1 {
        fill: #92d8e8;
      }

      .cls-2 {
        fill: #80cdd1;
      }

      .cls-3 {
        fill: #ff8f67;
      }

      .cls-4 {
        fill: #6fc0ce;
      }

      .cls-5 {
        fill: #f8f8f8;
      }

      .cls-6 {
        fill: #a86770;
      }

      .cls-7 {
        fill: #9de0e0;
      }

      .cls-8 {
        fill: #f4dad3;
      }
    </style>
  </defs>
  <g id="Layer_1" data-name="Layer 1">
    <g>
      <g>
        <path class="cls-3" d="M15.58,29.87c.2-.49,2.12-2.73,2.59-2.85,1.92-.5,3.65,4.5,4.8,5.32,1.32-1.05,2.29-1.42,3.93-1.72.87-.16,2.49-.25,3.53-.77-.15-.37-.21-.8-.23-1-.15-.63.38-1.69-.45-2.21.53-.38,1.23-.11,1.53.45.21-.55-.1-1.06-.16-1.58,2.04-.32,3.28,2.74,2.99,4.23-.24,1.22-.96,1.91-1.86,2.46-.53.46-3.7,3.13-7.78,4.01-.14.04-.27.09-.41.13-2.53.69-5-1.36-6.72-3.08-.85-.85-2.28-2.09-1.76-3.39Z"/>
        <path class="cls-8" d="M20.53,20.08s2.2.07,5.59,5.95l-3.61,2.41-1.98-8.36Z"/>
        <path class="cls-6" d="M3.64,15.82c-.15.48-.12.96-.13,1.51-.01.79-.74,1.5-.49,2.32.27-.46.84-.83.87-1.4.12.25-.17,2.18-.35,2.15.84.14,1.43.3,2.21.14.84-.18,1.33-.05,2.12.24.71.26,1.21.31,1.94.06.84-.28,1.25-.31,2.04.03.29-1.67.28-2.95-.31-4.54-.34-.93-.66-2.04-.75-3.02-.09-.95.5-1.77.42-2.72-.06-.74-.56-1.71-1.06-2.24-.78-.81-.68-.31-1.38-.01-.58.25-1.24-.18-1.79.11-.39.21-.45.86-.78,1.12-.51.39-1.05.02-1.52.51-.67.71-.71,2.07-.58,2.97.11.79.31,1.42-.15,2.13-.14.22-.24.43-.3.64Z"/>
        <path class="cls-3" d="M2.15,110.56c1.11.3,2.33.02,3.46-.05,1.59-.12,1.4-1.53,1.21-2.83-.07-.48-.14-.95-.12-1.32.09-1.59.39-3.15.69-4.71.45-2.3.89-4.65,1.66-6.88.59-1.7,1.06-3.43,1.42-5.19.32-1.55.55-3.12.71-4.69.24-2.41.69-4.75,1.3-7.08.48-1.81.02-3.33-2.1-3.79-3.7-.79-3.87,3.54-4.78,5.9-1.47,3.78-1.79,7.82-1.9,11.84-.08,2.69-.05,5.39-.23,8.08-.16,2.41-.2,5.28-1.4,7.43-.05.1-.1.19-.16.29-.68,1.1-1.44,2.53.23,2.98Z"/>
        <g>
          <path class="cls-3" d="M18.45,103.02c.12.7.32,1.39.32,2.1,0,.63-.28,1.17-.45,1.75-.04.14-.07.27-.1.39-.15.74-.44,1.94.29,2.44.73.49,2.01.25,2.83.22,1.11-.05,2.21-.09,3.32-.14,1.08-.04,4.97.68,4.16-1.32-.2-.49-.94-.66-1.48-.88-.03,0-.06-.02-.09-.03-.54-.23-1.07-.45-1.6-.68-.94-.4-2.24-.57-2.93-1.41-.74-.91-.58-2.79-.58-3.9,0-4.78.41-9.59.82-14.35,0-.04,0-.07,0-.07,0-.71,0-1.41,0-2.11-.01-1.69-.03-3.38-.05-5.07-.03-1.25.17-2.53-.24-3.73-.34-.94-1.24-1.33-2.04-1.8-1.2-.7-3.05-.52-3.68.8-.61,1.3-.42,2.86-.53,4.26-.23,3-.83,6.01-.57,9.03.21,2.42.89,4.89,1.35,7.28.25,1.37.46,2.75.71,4.13.17,1.02.35,2.06.55,3.09Z"/>
          <path class="cls-6" d="M18.51,109.7c.73.49,2.01.25,2.83.22,1.11-.05,2.21-.09,3.32-.14,1.08-.04,4.97.68,4.16-1.32-.2-.49-.94-.66-1.48-.88-.32.32-1.42.63-1.64.67-.84.18-1.84.28-2.72.24-.98-.04-1.9-.33-2.85-.6-.81-.23-1.3-.61-1.83-1.01-.03.13-.06.25-.09.38-.15.74-.44,1.94.29,2.44Z"/>
        </g>
        <path class="cls-2" d="M8.77,44.16c.57-3.98-.34-7.54-2.18-10.75-1.61-2.8-4.1-6.02-2.14-9.19,2-3.22,4.85-4.26,7.93-4.54,1.99-.18,4.07-.73,6.07-.42,1.41.22,2.06,1.25,3.04,2.14,1.09.99,1.42,2.45,2.08,3.74,1.05,2.08,1.65,3.4,1.45,5.9-.19,2.38-.97,4.63-1.05,7.01-.09,2.48.07,5.38.26,7.88.28,3.73.93,7.37,1.14,11.12.4,6.98,1.18,13.95.94,20.94-2.37-.39-4.44-1.05-6.9-.24-2.77.91-4.51,1.24-7.25-.18-2.28-1.18-3.54-.65-5.82-.23-1.32.25-3.41.94-4.65-.06,1.46-5.1,1.63-10.61,2.95-15.77,1.46-5.75,3.27-11.38,4.12-17.36Z"/>
        <g>
          <path class="cls-2" d="M1.5,3.75c2.28-1.45,5.14-.82,7.41-2.31,1.11-.73,2.37-2,3.79-1.16,1.02.6,2.83,2.78,2.48,4.07-.27.99-1.65.75-2.46,1.02-.97.33-2.11.5-2.98,1.09-1,.68-2.09,1.53-2.99,2.31-.89.78-.96,2.15-1.95,2.87-1.23.89-2.5-.16-3.15-1.24-1.31-2.21-2.88-4.9-.15-6.64Z"/>
          <path class="cls-6" d="M13.85,5.44c.29.02.46.24.7.36.24.12.48.1.71.19.56.22,1.14.81,1.49,1.3.4.56.23,1.93.37,2.7.2,1.02,1.12,1.62,1.43,2.6.17.55.2,1.21.14,1.78-.04.44-.2.8,0,1.23.21.45.65.75.86,1.23.2.49.18.99.16,1.51-.74-.07-1.12-.13-1.74.35-.62.48-.97.77-1.78.84-.58.05-1.18-.1-1.72.1-.49.18-1,.33-1.47.54-.13-.58-.32-1.21-.53-1.76-.46-1.22-1.35-2.36-1.47-3.7-.11-1.17.63-2.18.67-3.35.03-1.11-.36-2.1-.41-3.2-.05-1.18.23-1.5,1.28-1.95.48-.2.79-.81,1.32-.77Z"/>
          <path class="cls-3" d="M9.41,15.89s1.48,2.55,1.02,4.54c0,0,3.86,2.53,4.54-.87,0,0-.25-1.63-1.12-3.67h-4.44Z"/>
          <path class="cls-3" d="M9.21,6.66c1.88-1.12,4.73-1.33,6.47.18,1,.87,1.11,2.74,1.38,3.94.37,1.65,1.16,3.41.45,5.08-1.96,4.58-7.61,2.16-9.88-.85-1.99-2.63-1.23-6.69,1.58-8.36Z"/>
          <path class="cls-3" d="M6.33,12.97c.65-.27,1.23.39,1.51.9.34.6,1.22,2.25.03,2.55-.74.19-1.37-1.11-1.62-1.58-.28-.52-.75-1.53.09-1.87Z"/>
          <path class="cls-7" d="M1.86,9.56c.78-1.8,2.15-3.63,3.83-4.68.3-.19,3.09-1.55,3.11-1.14.03.76-.91,1.4-1.25,2.05-1.16,2.22-1.2,4.38-1.7,6.81-.36,1.77-2.41,2.3-3.81,1.08-1.18-1.03-.79-2.71-.18-4.12Z"/>
          <path class="cls-6" d="M8.52,13.34c-.06,1.01.31,1.73.53,2.67,0-.04-.47-.37-.55-.45-.22-.26-.37-.57-.54-.86-.25-.45-.56-1.27-1.09-1.47-1.15-.45-.79.98-1.08,1.39-.59.82-1.54-.09-1.64-.75-.24-1.69-.63-3.03-.23-4.72.29-1.21.84-2.16,1.65-3.12,1.44-1.7,3.99-3.51,5.95-1.49.39.4.6,1,.52,1.54.07.91-.96,1.81-1.44,2.48-.56.78-.88,1.46-.82,2.41.06.95-.46,1.79-.41,2.73-.1-.59-.23-1.3-.52-1.82-.49.04-.3,1.11-.32,1.47Z"/>
          <path class="cls-6" d="M9.85,4.25c.36-1.43,3.21-1.2,4.3-.89,1.23.35,2.32,1.1,3.04,2.17.34.52.52,1.32.62,1.92.07.43-.25,1.4-.16,1.68-.16-.45-.59-.82-.92-1.14.01.13-.03.29,0,.43-.65-.83-1.04-1.51-2.15-1.79-.58-.15-1.18-.1-1.76-.14-.9-.06-2,.64-2.67-.31-.31-.44-.44-1.28-.28-1.94Z"/>
          <path class="cls-6" d="M10.13,12.43c-.06,0-.13-.02-.18-.06-.14-.1-.16-.29-.06-.43.97-1.3,2.47-1.1,2.53-1.09.17.02.28.18.26.35-.02.17-.17.28-.35.26-.05,0-1.21-.16-1.95.85-.06.08-.15.12-.25.12Z"/>
          <path class="cls-6" d="M13.6,18.55c-.82,0-2.05-.18-3.23-1.03-.05-.04-.06-.11-.03-.16.04-.05.11-.06.16-.03,1.92,1.38,4.01.9,4.04.9.06-.01.12.02.14.09.01.06-.02.12-.08.14-.04,0-.41.1-.99.1Z"/>
          <path class="cls-6" d="M14.61,11c-.08,0-.16-.03-.22-.09-.12-.12-.11-.31,0-.43.8-.78,1.44-1.07,1.98-.9.47.15.68.64.73.91.03.17-.08.33-.25.36-.17.03-.32-.08-.36-.24,0,0-.08-.36-.32-.44-.14-.04-.53-.05-1.36.75-.06.06-.14.09-.21.09Z"/>
          <path class="cls-6" d="M14.71,14.77c-.07,0-.14-.05-.15-.13-.01-.08.04-.16.12-.18.14-.02.31-.08.35-.19.08-.21-.25-.62-.44-.86-.06-.08-.12-.15-.16-.2-.3-.44-.52-1.22-.34-1.8.03-.08.11-.12.19-.1.08.03.12.11.1.19-.15.47.03,1.15.3,1.54.04.05.09.12.14.19.26.33.63.79.49,1.16-.07.19-.27.32-.59.38,0,0-.02,0-.03,0Z"/>
          <path class="cls-6" d="M13.86,16.13c-.43,0-.91-.11-1.41-.41-.07-.04-.1-.14-.05-.21.04-.07.14-.1.21-.05,1.57.95,2.86-.22,2.88-.24.06-.06.16-.05.22,0,.06.06.05.16,0,.22,0,0-.76.69-1.83.69Z"/>
          <path class="cls-6" d="M11.12,12.83c0,.08.01.15.03.22.23-.1.47-.13.65-.13,0-.03,0-.06,0-.09,0-.29-.15-.52-.34-.52s-.35.23-.35.52Z"/>
          <path class="cls-6" d="M15.63,11.78c0,.08.01.15.04.22.23-.1.46-.13.65-.14,0-.03,0-.06,0-.09,0-.29-.15-.52-.35-.52s-.34.23-.34.52Z"/>
          <path class="cls-6" d="M7.68,15.65s-.06-.01-.08-.04c-.03-.03-.07-.1-.18-.27-.14-.23-.56-.9-.74-1.02,0,.11-.06.17-.13.15-.06,0-.11-.06-.11-.12,0-.16.06-.25.16-.27.18-.05.43.21,1.01,1.14.07.1.13.21.15.23.04.05.04.12,0,.16-.02.02-.05.03-.08.03Z"/>
          <path class="cls-7" d="M3.42,7.49c.61-1.07,1.48-2.02,2.35-2.78,2.06-1.81,5.18-2.5,7.88-2.07.38.06.79.14,1.11.37.21.15.71.22.73.55.02.39-.59.24-.86.23-1.05-.04-2-.08-3.03.22-1.33.39-2.56,1.04-3.69,1.83-.66.47-1.31.97-1.91,1.52-.53.49-1.11,1.13-1.48,1.74-.27.45-1.3,2.68-2.04,1.49-.5-.8.55-2.44.93-3.11Z"/>
        </g>
        <path class="cls-6" d="M2.15,110.56c1.11.3,2.33.02,3.46-.05,1.59-.12,1.4-1.53,1.21-2.83-.4.69-1.16.99-1.99,1.12-1.52.25-2.37-.54-2.75-1.51-.05.1-.1.19-.16.29-.68,1.1-1.44,2.53.23,2.98Z"/>
      </g>
      <path class="cls-8" d="M10.69,21.84s5.94,7.24,5.94,10.77l-.56,4.27-4.27,42.35s-1.86-1.3-3.9-1.3c0,0-5.39,1.3-7.62-.19l5.57-27.67s2.97-10.4,2.23-12.07c0,0-7.43-8.36-5.57-11.52,1.86-3.16,4.58-5.26,4.58-5.26,0,0,1.67-1.05,2.35-1.18l1.24,1.8Z"/>
      <path class="cls-8" d="M27.82,76.39c-.24-.74-.47-1.5-.5-2.36-.06-1.8.13-3.6-.15-5.38-.52-3.34-1.11-6.88-1.09-10.26.03-3.64.03-7.3-.53-10.91-.45-2.96-.78-6.16-.93-9.1-.15-3.11.46-5.85.75-8.72.23-2.26-.7-3.58-1.71-5.46-1.01-1.89-2.11-3.94-4.17-4.8-.38-.16-4.16-1.64-4.24-.89-.18,1.77,1.43,1.79,2.59,2.38,2.46,1.24,3.54,4,4.14,6.53.35,1.47.36,2.99.35,4.5-.01,1.21.25,2.31.26,3.49.03,3.09-.54,6.21-.68,9.31-.3,6.5-.5,13.01-.44,19.53.05,4.91-.11,10.06.22,14.98,1.02-.83,2.32-.44,3.47-.18,1.33.29,1.94-.16,3.22-.31-.06-.82-.32-1.57-.57-2.33Z"/>
      <g>
        <path class="cls-7" d="M14.46,20.61c.11-.07.2-.13.25-.19.2-.2.28-.52.27-.79,0-.2-.13-.84-.01-.97.15-.16.72-.09.92-.08.45.04.95.4,1.18.78.45.74.16,1.68-.5,2.19-.8.63-1.86.59-2.77.22-.88-.36.11-.82.66-1.17Z"/>
        <path class="cls-7" d="M11.97,21.02c-.4-.11-.76-.32-1.05-.63-.19-.2-.39-.46-.51-.7-.09-.19-.06-.4-.31-.48-.41-.12-.99.36-1.11.74-.49,1.62,1.46,2.85,2.88,2.61.83-.14,1.29-.5,1.68-1.22.08-.15-1.04-.25-1.12-.25-.15,0-.3-.03-.45-.07Z"/>
      </g>
      <g>
        <g>
          <path class="cls-1" d="M32.92,17.5l-1.32,10.33s-1.03.39-1.95-.27l1.19-10.32,2.08.26Z"/>
          <path class="cls-4" d="M30.85,17.24c-.03.24.41.49.98.56.57.07,1.06-.06,1.09-.3.03-.24-.41-.49-.98-.56-.58-.07-1.06.06-1.09.3Z"/>
          <path class="cls-4" d="M32.36,17.25l-.08-.61-.61-.08-.18.59s.57.23.87.1Z"/>
          <polygon class="cls-4" points="32.06 16.69 32.6 11.48 31.86 16.68 32.06 16.69"/>
        </g>
        <g>
          <polygon class="cls-4" points="30.64 27.88 30.07 32.78 29.61 32.74 30.16 27.84 30.64 27.88"/>
          <path class="cls-4" d="M28.68,32.62c-.04.27.44.57,1.07.67.63.1,1.18-.05,1.22-.32.04-.27-.44-.57-1.07-.67-.63-.1-1.18.05-1.22.32Z"/>
        </g>
        <path class="cls-3" d="M5.39,31.59c-.85-1.85.21-3.47,2.19-3.48,3.94-.03,6.75,3.31,10.6,3.54,1.29.08,3.1-1.03,4.28-1.52,1.58-.65,3.14-1.39,4.48-2.46.78-.62,1.19-1.54,1.53-2.46.33-.92.78-1.68,1.25-2.53.16-.29.2-.65.38-.94.48.12.54.71.43,1.11-.06.22-.2.39-.26.61-.07.26-.2.91.1,1.09.49.29,1.17-.64,1.39-1.01.51-.85.73-1.83.99-2.78.55-1.99.86-.03,1.13.96.27.99.47,1.46.12,2.43-.47,1.31-1.13,2.86-2.3,3.69-.76.54-1.58.82-2.26,1.44-1.08,1-2.04,2.11-3.02,3.2-.66.74-1.5,1.28-2.2,1.95-1.4,1.35-3.43,2.43-5.31,2.94-1.79.48-3.77-.58-5.45-1.16-2.76-.95-6.71-1.67-8.06-4.61Z"/>
      </g>
      <path class="cls-8" d="M2.95,26.71c.22-1.83,1.43-3.36,3.6-2.86,1.79.42,3.12,1.93,4.48,3.01.26.21,2.47,2.62,2.66,2.5-1.36.91-2.09,2.32-2.76,3.76-.23.5-1.38,3.53-2.21,3.07-.63-.34-1.01-1.24-1.48-1.76-.57-.63-1.2-1.2-1.75-1.86-.88-1.08-1.95-2.39-2.35-3.76-.2-.68-.26-1.41-.18-2.1Z"/>
      <path class="cls-5" d="M9.21,36.42c-.06,0-.12-.03-.16-.09-.06-.09-.03-.2.06-.26.42-.27,1.04-1.55,1.49-2.47.19-.4.36-.74.5-.99l.23-.43c.54-.99,1.05-1.93,2.05-2.61.09-.06.2-.04.26.05.06.08.04.2-.05.26-.92.63-1.39,1.49-1.94,2.48l-.24.43c-.13.24-.3.59-.49.97-.52,1.08-1.11,2.3-1.62,2.63-.03.02-.07.03-.1.03Z"/>
      <path class="cls-5" d="M12.5,28.99c-.05,0-.1-.02-.14-.06-.41-.47-.95-.89-1.46-1.29-.37-.28-.74-.58-1.08-.89l-.23-.22c-.29-.28-.59-.57-.9-.77l-.16-.11c-.63-.42-1.69-1.12-2.36-1.02-.1,0-.2-.06-.21-.16-.01-.1.06-.2.16-.21.78-.11,1.94.64,2.61,1.08l.16.11c.34.22.66.52.96.82l.23.22c.32.3.69.59,1.05.87.53.41,1.08.84,1.52,1.34.07.08.06.19-.02.26-.04.03-.08.05-.12.05Z"/>
      <path class="cls-5" d="M25.06,27.22c-.07,0-.13-.03-.16-.1-.34-.6-.64-1.2-.93-1.78-1-2-1.86-3.72-3.7-4.64-.09-.05-.13-.16-.08-.25.04-.09.16-.13.25-.08,1.95.98,2.88,2.84,3.87,4.81.29.58.59,1.17.92,1.77.05.09.02.2-.07.25-.03.02-.06.02-.09.02Z"/>
    </g>
  </g>
</svg>