<?xml version="1.0" encoding="UTF-8"?>
<svg xmlns="http://www.w3.org/2000/svg" viewBox="0 0 141.11 243.77">
  <defs>
    <style>
      .cls-1 {
        fill: #889296;
      }

      .cls-2, .cls-3, .cls-4 {
        opacity: .5;
      }

      .cls-2, .cls-5 {
        fill: #c0c1c2;
      }

      .cls-6, .cls-7, .cls-4 {
        fill: #6f7274;
      }

      .cls-8 {
        opacity: .3;
      }

      .cls-8, .cls-3, .cls-7, .cls-4, .cls-9 {
        mix-blend-mode: multiply;
      }

      .cls-8, .cls-10 {
        fill: #4b5157;
      }

      .cls-11, .cls-12, .cls-13 {
        mix-blend-mode: screen;
      }

      .cls-11, .cls-12, .cls-14 {
        fill: #6d7174;
      }

      .cls-7 {
        opacity: .7;
      }

      .cls-15 {
        isolation: isolate;
      }

      .cls-16, .cls-13 {
        fill: #fff;
      }

      .cls-12 {
        fill-rule: evenodd;
      }

      .cls-13 {
        opacity: .6;
      }

      .cls-17 {
        fill: #c2c2c2;
      }

      .cls-9 {
        fill: #3c4045;
      }
    </style>
  </defs>
  <g class="cls-15">
    <g id="Calque_2" data-name="Calque 2">
      <g id="Layer_1" data-name="Layer 1">
        <g>
          <g>
            <g>
              <path class="cls-17" d="M4.1,24.41C1.54,26.09.09,27.71,0,29.06c-.23,3.49,12.78,33.9,12.91,34.23l3.3-.36L2.92,28.67c.18-2.7,12.55-8.53,28.61-12.94l-.42-1.96c-15.85,4.58-21.91,7.27-27.01,10.63Z"/>
              <g class="cls-3">
                <path class="cls-6" d="M31.53,15.74l-.42-1.96c-2.46.71-4.69,1.38-6.71,2.01.25.34.45.84-.22,1.14-1.08.47-16.79,5.41-21.94,10.54,0,0-1.31.54-.68,2.34.63,1.79,10.28,27.31,10.41,27.42.1.08-.2,1.74-.4,2.85.81,1.92,1.33,3.14,1.35,3.2l3.3-.36L2.92,28.67c.18-2.7,12.55-8.53,28.61-12.94Z"/>
              </g>
              <g>
                <path class="cls-10" d="M26.12,12.93s-1.28,3.11,1.37,5.59c0,0,1.99,1.7,12.9-3.97,0,0,.98-2.73-1.11-4.67,0,0-10.23.35-13.15,3.04Z"/>
                <path class="cls-1" d="M25.94,13.57c-.12.56-.21,1.44.04,2.43,4.8-1.39,9.61-2.88,14.43-4.32-.11-.38-.3-.75-.55-1.1-4.63.92-9.27,1.8-13.91,3Z"/>
                <path class="cls-1" d="M40.54,13.9c.02-.21.06-.46.07-.74-4.7,1.41-9.38,2.87-14.06,4.22.17.29.4.58.66.86,4.45-1.43,8.94-2.78,13.33-4.34Z"/>
                <path class="cls-8" d="M39.27,9.9s-10.23.35-13.15,3.04c0,0-1.28,3.11,1.37,5.59,0,0,1.99,1.7,12.9-3.97,0,0,.98-2.73-1.11-4.67ZM35.49,14.85c-1.63.59-3.62,1.3-5.37,1.44-1.89.15-1.88-.7-2.15-1.66-.82-2.88,1.17-3.01,8.91-4.25,1.24-.2,2.35-.46,2.65.37.15.41,1.05,1.34.08,2.01-1.13.79-2.81,1.63-4.12,2.09Z"/>
              </g>
              <path class="cls-16" d="M21.44,16.97S5.86,22.35,1.39,27.49c0,0-1.23,1.26-.68,2.98.54,1.71,9.39,25.06,9.39,25.06,0,0-10.56-24.29-9.72-26.98.84-2.7,9.3-7.81,21.06-11.57Z"/>
            </g>
            <g>
              <path class="cls-14" d="M110.27,133.33c-4.45,1.15-7.56,4.32-9.54,9.66-5.96,16.06,1.54,47.68,6.34,62.16,3.71,11.18,1.99,22.12-4.49,28.55-2.85,2.83-6.57,4.72-11.11,5.67-4.57.96-8.32.76-11.48-.59-6.19-2.65-9.87-9.93-9.83-19.49.04-5.55,2.48-14.71,5.3-25.3,2.82-10.57,6.02-22.56,7.25-33.02,2.06-17.56-3.91-36.36-5.98-42.19,23.28-5.77,30.27-14,34.41-24.34,1.07-2.7,2.04-5.8,2.9-8.97-2.27.11-4.57.22-6.64-.08-1.19,4.41-2.62,8.86-4.23,12.2-4.74,9.84-14.66,14.56-31.4,18.28-16.74,3.71-27.89-1.98-34.66-12.15-5.8-8.7-16.54-33.47-20.22-44.37-1.97.45-3.9,1-5.72,1.78,4.46,12.38,13.75,35.39,16.99,41.17,4.14,7.39,14.76,23.61,42.72,17.82,1.85,5.22,8.02,24.28,6.01,41.49-1.21,10.28-4.39,22.17-7.18,32.66-2.88,10.76-5.35,20.06-5.39,25.94-.02,5.08,1.06,17.38,11.7,21.92,4.37,1.86,9.72,2.15,15.93.87.41-.09.8-.18,1.2-.27,5.73-1.38,10.47-3.91,14.11-7.53,7.57-7.51,9.64-19.35,5.56-31.67-5.47-16.5-11.7-46.25-6.41-60.53,1.26-3.4,3.06-5.7,4.8-6.16,2.38-.6,6.33,1.4,8.22,2.97l4.94-2.76c-.7-.58-6.97-5.57-14.11-3.71Z"/>
              <path class="cls-9" d="M110.27,133.33c-4.45,1.15-7.56,4.32-9.54,9.66-5.96,16.06,1.54,47.68,6.34,62.16,3.71,11.18,1.99,22.12-4.49,28.55-2.85,2.83-6.57,4.72-11.11,5.67-1.45.3-2.81.47-4.11.55-3.15.8-6.37.96-9.04.06-7.4-2.51-10.22-9.25-10.65-14.85-.64-8.25,1.26-17.71,3.2-26.29.99-4.34,2.18-9.2,3.43-13.56,1.87-6.53,3.39-13.11,4.34-19.58.5-3.48.71-6.92.6-10.32-.14-4.15-.67-8.22-1.11-12.31-.24-2.12-.53-4.23-.96-6.31-1.21-5.71-2.93-11.29-4.2-16.98-.24-1.08,2.49-1.74,2.74-.66.59,2.66,1.32,5.28,2.04,7.91.58,2.16,1.5,4.21,2.02,6.38.5,2.1.61,4.3,1.03,6.43.78,4.03,1.3,8.12,1.45,12.28.14,4,0,8.03-.76,12.15-1.3,6.93-2.03,13.79-4.34,20.79-.63,1.92-1.3,3.83-1.89,5.75-1.87,6.04-4.2,13.98-4.59,19.92-.44,6.79-1.77,14.53,1.67,20.48,1.12,1.91,2.63,4.71,5.3,6.24-4.75-3.34-7.48-9.89-7.45-18.16.04-5.55,2.48-14.71,5.3-25.3,2.82-10.57,6.02-22.56,7.25-33.02,2.06-17.56-3.91-36.36-5.98-42.19,23.28-5.77,30.27-14,34.41-24.34,1.07-2.7,2.04-5.8,2.9-8.97-2.27.11-4.57.22-6.64-.08-1.19,4.41-2.62,8.86-4.23,12.2-4.74,9.84-14.66,14.56-31.4,18.28-16.74,3.71-27.89-1.98-34.66-12.15-5.8-8.7-16.54-33.47-20.22-44.37-1.97.45-3.9,1-5.72,1.78,4.46,12.38,13.75,35.39,16.99,41.17,4.14,7.39,14.76,23.61,42.72,17.82,1.85,5.22,8.02,24.28,6.01,41.49-1.21,10.28-4.39,22.17-7.18,32.66-2.88,10.76-5.35,20.06-5.39,25.94-.02,5.08,1.06,17.38,11.7,21.92,4.37,1.86,9.72,2.15,15.93.87.41-.09.8-.18,1.2-.27,5.73-1.38,10.47-3.91,14.11-7.53,2.07-2.05,3.71-4.44,4.94-7.05-1.82,3.48-4.11,7.2-8.81,9.6-8.67,4.42-2.99.39-1.61-.53,14.09-9.41,11.11-24.24,8.51-33.63-2.94-10.63-6.05-21.13-8.34-31.93-.24-1.08,2.51-1.75,2.74-.66.99,4.64,1.96,9.26,3.1,13.86-3.23-15.06-5.01-32.08-1.39-41.85,1.26-3.4,3.06-5.7,4.8-6.16,2.38-.6,6.33,1.4,8.22,2.97l4.94-2.76c-.7-.58-6.97-5.57-14.11-3.71ZM49.29,117.71c-6.85-2.31-10.8-5.14-14.14-9.57-1.78-2.37.57-4.29,1.89-2.47,3.07,4.23,6.41,7.85,12.2,9.8,6.6,2.22,15.29,2.62,23.71.81,8.91-1.92,19.2-5.47,25.32-10.83,4.57-4,6.12-8.22,8.5-12.58.63-1.15,3.18-.88,2.55.27-3.04,5.57-5.09,11.2-12.47,15.74-6.65,4.09-15.26,7.58-23.53,9.07-8.17,1.48-17.36,1.99-24.01-.24Z"/>
              <path class="cls-4" d="M107.71,84.79c.27-1.07.46-2.13.66-3.2-.26,1.05-.52,2.11-.81,3.19.04,0,.1,0,.15,0Z"/>
              <path class="cls-4" d="M107.4,85.38c-.22.8-.43,1.6-.66,2.4.34-.79.59-1.58.81-2.37-.05-.01-.1-.01-.15-.03Z"/>
              <path class="cls-14" d="M125.04,153.8c-5.29-.62-8.46-2.08-9.62-4.82-1.17-2.75-1.22-8.67.28-12.99,1.51-4.33,4.61-7.64,9.42-10.08,4.81-2.44,7.35-2.24,7.87-2.19.51.04-7.96,30.08-7.96,30.08Z"/>
              <path class="cls-7" d="M125.04,153.8c-5.29-.62-8.46-2.08-9.62-4.82-1.17-2.75-1.22-8.67.28-12.99,1.51-4.33,4.61-7.64,9.42-10.08,4.81-2.44,7.35-2.24,7.87-2.19.51.04-7.96,30.08-7.96,30.08Z"/>
              <path class="cls-6" d="M140.92,137.7c-1.14,8.34-7.12,15.6-13.36,16.24-6.24.64-10.36-5.6-9.22-13.94,1.15-8.35,7.13-15.61,13.37-16.24,6.24-.64,10.36,5.61,9.21,13.94Z"/>
              <path class="cls-4" d="M118.83,137.68c1.41-3.66,4.15-7.17,6.3-10.76-3,2.63-5.38,6.62-6.41,11.08.04-.11.07-.21.11-.32Z"/>
              <path class="cls-4" d="M120.57,140.22c-.62,1.88-1.19,3.75-1.79,5.62.73-1.59,1.46-3.18,2.17-4.78,2.57-5.74,5.58-11.3,8.82-16.88-.18.05-.36.13-.54.2-2.42,5.31-6.87,10.48-8.66,15.84Z"/>
              <path class="cls-4" d="M122.94,147.48c3.99-7.71,8.95-15.37,12.73-23.1-.88-.4-1.85-.63-2.88-.66-3.64,6.32-7.03,12.61-9.96,19.1-1.01,2.24-2.04,4.48-3.12,6.7.34.64.75,1.21,1.2,1.73.7-1.26,1.38-2.51,2.04-3.77Z"/>
              <path class="cls-4" d="M140.84,134.48c-.45.7-.89,1.4-1.35,2.09-3.19,4.86-5.5,9.77-8.41,14.66-.35.6-.72,1.18-1.08,1.79,4.41-6.12,8.71-12.23,10.84-18.54Z"/>
              <path class="cls-4" d="M134.34,150.6c2.24-2.03,4.11-4.83,5.32-8-1.59,2.68-3.42,5.34-5.32,8Z"/>
              <path class="cls-4" d="M126.72,153.97c.29-.46.57-.92.84-1.38,2.95-4.97,5.25-10,8.48-14.94,1.57-2.39,3.19-4.78,4.41-7.2-.33-1.08-.77-2.06-1.32-2.92-5.59,8.51-10.86,17.04-15.86,25.62,1.03.54,2.19.82,3.44.82Z"/>
              <g>
                <path class="cls-6" d="M11.18,61.12c4.46,12.38,13.75,35.39,16.99,41.17.61,1.1,1.37,2.38,2.3,3.77,2.31-.58,4.36-1.66,6.28-2.93-5.87-9.15-16.25-33.12-19.85-43.8-1.97.45-3.9,1-5.72,1.78Z"/>
                <path class="cls-4" d="M14.66,59.91c1.74,6.65,4.65,13.7,7.22,19.5,3.43,7.74,6.83,15.5,11.71,22.73.64.94-1.9,2.03-2.55,1.07-5.62-8.3-9.96-17.31-13.86-26.38,4.23,10.66,8.88,21.69,10.99,25.44.61,1.1,1.37,2.38,2.3,3.77,2.31-.58,4.36-1.66,6.28-2.93-5.87-9.15-16.25-33.12-19.85-43.8-.75.18-1.5.37-2.24.58Z"/>
                <path class="cls-5" d="M13.16,60.37c-.32.11-.63.22-.95.34,4.07,12.57,11.83,32.82,18.4,39.9.32.36-13.17-24.47-16.89-38.17-.2-.73-.39-1.41-.56-2.07Z"/>
              </g>
              <path class="cls-5" d="M123.65,128.36c-2.68,3-4.7,7.16-5.31,11.63-.05.34-.07.69-.1,1.02,1.63-4.23,3.32-8.45,5.41-12.65Z"/>
              <path class="cls-5" d="M131.09,123.85c-.94.17-1.89.47-2.8.92-4.2,7.27-6.75,14.68-9.63,22.05.1.39.23.77.36,1.14,3.99-8.03,8.02-16.07,12.07-24.1Z"/>
              <path class="cls-2" d="M125.62,148.37c3.63-7.83,7.73-15.7,10.81-23.56-.8-.49-1.68-.84-2.64-.99-4.49,8.93-8.88,17.87-13.42,26.79.81,1.13,1.81,2,2.97,2.58.77-1.6,1.52-3.21,2.27-4.82Z"/>
              <path class="cls-2" d="M132.92,147.83c-.77,1.77-1.55,3.54-2.39,5.3,5.07-2.2,9.44-8.43,10.39-15.42.28-2,.24-3.87-.05-5.56-2.7,5.22-5.69,10.42-7.95,15.69Z"/>
              <path class="cls-9" d="M132.96,138.27c-.16,1.19-1.01,2.22-1.91,2.31-.88.09-1.47-.8-1.31-1.99.17-1.18,1.02-2.21,1.9-2.31.89-.09,1.47.8,1.31,1.99Z"/>
              <path class="cls-13" d="M131.7,123.76c-6.24.63-12.22,7.89-13.37,16.24-.01.04,0,.07,0,.11,1.1-7.72,6.65-14.44,12.44-15.02,5.81-.59,9.66,5.23,8.6,13.01-1.07,7.76-6.65,14.54-12.46,15.14-4.33.44-7.55-2.66-8.49-7.47.96,5.26,4.46,8.67,9.14,8.19,6.24-.63,12.22-7.9,13.36-16.24,1.15-8.33-2.98-14.58-9.21-13.94Z"/>
            </g>
            <g>
              <g>
                <path class="cls-17" d="M103.68.43c2.99.34,4.96,1.14,5.6,2.32,1.64,3.04,2.4,36.4,2.41,36.76l-3.11,1.18-2.09-36.95c-1.27-2.35-14.81-1.94-31.09,1.44l-.43-1.95C91.12.1,97.7-.26,103.68.43Z"/>
                <g class="cls-3">
                  <path class="cls-6" d="M75.39,5.18l-.43-1.95c2.51-.49,4.79-.91,6.88-1.27-.09.42-.05.96.67.93,1.17-.06,17.35-2.81,24.11-.54,0,0,1.39-.12,1.57,1.79.17,1.91,1.96,29.32,1.87,29.49-.05.11.9,1.48,1.54,2.38.07,2.11.09,3.44.1,3.51l-3.11,1.18-2.09-36.95c-1.27-2.35-14.81-1.94-31.09,1.44Z"/>
                </g>
                <g>
                  <path class="cls-10" d="M79.12.17s2.43,2.22,1.07,5.68c0,0-1.09,2.43-13.25,2.32,0,0-2.01-2.02-.91-4.72,0,0,9.36-4.36,13.09-3.28Z"/>
                  <path class="cls-1" d="M79.54.67c.34.45.79,1.2.97,2.2-4.9.95-9.84,1.81-14.78,2.7-.04-.38-.03-.8.05-1.25,4.56-1.29,9.1-2.62,13.77-3.66Z"/>
                  <path class="cls-1" d="M66.52,7.65c-.12-.18-.25-.39-.37-.65,4.8-.87,9.63-1.71,14.41-2.63-.05.35-.13.71-.25,1.09-4.6.75-9.21,1.58-13.79,2.19Z"/>
                  <path class="cls-8" d="M66.93,8.17c12.16.11,13.25-2.32,13.25-2.32,1.36-3.46-1.07-5.68-1.07-5.68-3.74-1.08-13.09,3.28-13.09,3.28-1.11,2.7.91,4.72.91,4.72ZM66.89,6.2c-1.15-.16-.73-1.41-.76-1.84-.07-.88,1.04-1.15,2.24-1.54,7.49-2.44,9.34-3.23,9.78-.26.15,1,.51,1.75-1.26,2.48-1.63.68-3.71.95-5.42,1.16-1.37.17-3.24.19-4.57,0Z"/>
                </g>
                <path class="cls-16" d="M84.99,1.67s16.25-2.29,22.39.29c0,0,1.63.59,1.84,2.38.21,1.79,1.82,26.88,1.82,26.88,0,0-.45-26.73-2.32-28.77-1.85-2.03-11.58-2.78-23.73-.78Z"/>
              </g>
              <g>
                <path class="cls-6" d="M113.25,36.45c1.06,13.19,2.13,38.18,1.58,44.87-.1,1.27-.25,2.78-.53,4.45-2.32.54-4.6.51-6.86.24,1.53-10.93,1.05-37.28-.08-48.55,1.95-.5,3.93-.9,5.89-1.01Z"/>
                <path class="cls-4" d="M109.62,36.94c1.16,6.8,1.43,14.47,1.5,20.88.09,8.54.2,17.09-1.23,25.84-.19,1.15,2.55.96,2.74-.19,1.65-10.06,1.87-20.17,1.67-30.11.57,11.54.9,23.61.54,27.94-.1,1.27-.25,2.78-.53,4.45-2.32.54-4.6.51-6.86.24,1.53-10.93,1.05-37.28-.08-48.55.75-.19,1.5-.36,2.26-.51Z"/>
                <path class="cls-5" d="M111.17,36.67c.33-.05.66-.09.98-.13,1.51,13.2,2.82,35-.2,44.37-.15.48,1.82-28.07-.46-42.12-.11-.75-.23-1.44-.33-2.12Z"/>
              </g>
            </g>
          </g>
          <path class="cls-11" d="M62.79,118.11c-6.4-.28-11.71-.98-16.46-3.3-4.3-2.09-7.21-5.23-9.76-8.31-.07-.07-.29.09-.25.16,1.97,3.22,4.67,6.21,8.74,8.35,4.85,2.55,10.64,3.44,17.55,3.35.17,0,.38-.25.18-.25Z"/>
          <path class="cls-11" d="M106.47,95.58c-1.65,2.91-3.6,5.77-6.23,8.5-2.91,3.02-6.91,5.03-11.03,7.3-.13.07-.22.33.02.22,9.37-3.88,14.65-9.67,17.49-16.08.07-.14-.2-.05-.25.05Z"/>
          <path class="cls-12" d="M76.19,126.79c-.03-.09-.24.05-.22.12,3.97,10.77,3.73,22.47,3.79,34.04,0,.28.55-.02.58-.21,1.26-11.59.03-23.49-4.16-33.95Z"/>
          <path class="cls-12" d="M78.31,238.63c-7.44-4.83-9.32-11.78-9.07-19.26,0-.1-.21,0-.21.08-.66,7.46.14,15.42,8.9,19.51.17.08.52-.24.39-.33Z"/>
          <path class="cls-12" d="M110.92,198.91c-1.12-3.83-2.07-7.74-3.74-11.41-.04-.07-.22.04-.2.1,2.56,6.8,4.04,14.09,5.65,21.15.81,3.54,1.1,7.21.88,10.96-.22,3.86-2.38,7.84-4.61,11.71-.14.27.28.23.42,0,2.19-3.23,3.91-6.47,4.76-9.79.98-3.76.47-7.51-.11-11.04-.66-3.98-1.94-7.82-3.06-11.67Z"/>
        </g>
      </g>
    </g>
  </g>
</svg>