<?xml version="1.0" encoding="UTF-8"?>
<svg id="Calque_2" data-name="Calque 2" xmlns="http://www.w3.org/2000/svg" viewBox="0 0 95.07 212.88">
  <defs>
    <style>
      .cls-1 {
        fill: #ffc197;
      }

      .cls-2 {
        fill: #21c9d6;
      }

      .cls-3 {
        fill: #f2ad7e;
      }

      .cls-4 {
        fill: #ebf4fc;
      }

      .cls-5 {
        fill: #007d87;
      }

      .cls-6 {
        fill: #f4676e;
      }

      .cls-7 {
        fill: #143658;
      }

      .cls-8 {
        fill: #0fa5b7;
      }
    </style>
  </defs>
  <g id="OBJECTS">
    <g>
      <path class="cls-1" d="M32.19,205.97l-14.96,6.91h21.98l.78-21.88c-3.43.05-6.86.11-10.29.17l2.48,14.8Z"/>
      <path class="cls-8" d="M54.87,190.84c3.57-.02,7.14-.02,10.71-.01l.29-32.62c-5.96-.22-11.93-.46-17.9-.65l6.9,33.28Z"/>
      <path class="cls-8" d="M24.03,157.25l5.68,33.93c3.43-.06,6.85-.12,10.29-.17l1.2-33.63c-5.73-.13-11.46-.2-17.17-.13Z"/>
      <path class="cls-5" d="M17.19,116.41l6.84,40.84c5.71-.07,11.43,0,17.17.13l.99-27.72,5.78,27.91c5.97.19,11.93.43,17.9.65l.37-41.8H17.19Z"/>
      <path class="cls-1" d="M54.87,190.84l4.57,22.04h18.3l-12.31-5.91.14-16.14c-3.57-.01-7.14,0-10.71.01Z"/>
      <path class="cls-3" d="M19.56,75.58l-4.53-3.79s-5.42,7.6-9.75,15.77c2.9.68,5.8,1.41,8.7,2.13l5.58-14.11Z"/>
      <path class="cls-8" d="M29.88,54.93c-.38.69-22.52,14.81-22.52,14.81,0,0,11.91,10.88,16.9,9.98l5.61-24.79Z"/>
      <polygon class="cls-2" points="29.88 54.93 14.92 82.49 22.4 89.87 9.95 150.71 74.55 150.71 58.54 54.93 29.88 54.93"/>
      <g>
        <g>
          <polygon class="cls-3" points="50.93 31.22 49.76 54.93 40.01 64.77 33.94 54.93 35.92 45.35 50.93 31.22"/>
          <path class="cls-7" d="M26.66,38.2s-7.79-19.85,4.77-18.64l-4.77,18.64Z"/>
          <path class="cls-1" d="M53.99,28.73c-.03.95-.08,1.92-.15,2.9-.05.55-.1,1.11-.17,1.66-.06.52-.13,1.05-.22,1.57-.18,1.11-.4,2.22-.68,3.29-.57,2.15-1.37,4.18-2.47,5.96-2.36,3.8-6.13,6.39-12,6.39-1.21-.1-2.32-.3-3.31-.6-4.49-1.31-6.82-4.43-7.8-8.35-.47-1.87-.63-3.9-.58-6.02.15-6.25,2.17-13.13,3.79-17.85.37-1.07.72-2.02,1.02-2.84h21.47s1.3,6.47,1.11,13.9Z"/>
          <circle class="cls-7" cx="56.36" cy="9.18" r="9.18" transform="translate(11.68 44.74) rotate(-47.77)"/>
          <path class="cls-7" d="M43.07,6.73c-3.7-.52-7.52.27-10.86,1.93-3.55,1.76-6.91,5.38-5.97,9.23.66,2.68,3.27,4.51,5.96,5.14,2.69.63,5.49.31,8.25.15,2.76-.16,5.64-.14,8.11,1.09,3.04,1.51.51,6,4.95,8.27,4.19-2.4,5.21-8,4.85-12.81-.35-4.59-1.94-6.52-5.84-8.52-3.25-1.67-5.64-3.95-9.45-4.49Z"/>
          <path class="cls-7" d="M41.24,38.2s-.12.36-.36.85c-.51,1.02-1.57,2.6-3.27,2.6-.71,0-1.33-.13-1.85-.35-2.16-.87-2.79-3.1-2.79-3.1h8.28Z"/>
          <path class="cls-6" d="M40.88,39.05c-.51,1.02-1.57,2.6-3.27,2.6-.71,0-1.33-.13-1.85-.35.41-1.41,1.94-2.46,3.76-2.46.48,0,.95.08,1.37.21Z"/>
          <path class="cls-1" d="M51.18,32.34c1.02-1.76,2.26-3.5,4.06-4.45,1.8-.95,4.28-.88,5.63.65.87.99,1.12,2.4,1.03,3.72-.19,2.58-1.73,5.11-4.11,6.14-2.38,1.03-5.49.27-6.86-1.93l.25-4.12Z"/>
          <path class="cls-6" d="M35.82,29.09c-1.16-.12-1.63,6.99-1.63,6.99h2.72s.84-6.79-1.1-6.99Z"/>
          <path class="cls-7" d="M53.2,34.41c.81-2.65,3.2-4.51,5.96-4.67.49-.03.49.74,0,.77-1.46.08-2.8.73-3.79,1.73.01.03.03.05.04.08.06.05.13.1.19.15.1.09.2.19.29.29.19.21.36.45.5.7.28.52.43,1.09.43,1.68,0,.21-.18.38-.38.38s-.38-.18-.38-.38c0-.34-.05-.6-.17-.95,0-.02-.04-.11-.04-.11,0,0-.03-.07-.04-.09-.04-.08-.08-.16-.12-.24-.08-.14-.18-.28-.26-.38-.11-.13-.23-.25-.36-.37-.07-.06-.07-.06-.15-.12-.02-.01-.04-.03-.06-.05-.39.53-.71,1.12-.91,1.77-.14.47-.89.27-.74-.2Z"/>
          <g>
            <path class="cls-7" d="M42.17,31.41c0,.92.75,1.67,1.67,1.67s1.67-.75,1.67-1.67-.75-1.67-1.67-1.67-1.67.75-1.67,1.67Z"/>
            <path class="cls-7" d="M29.76,31.41c0,.92.75,1.67,1.67,1.67s1.67-.75,1.67-1.67-.75-1.67-1.67-1.67-1.67.75-1.67,1.67Z"/>
          </g>
        </g>
        <path class="cls-6" d="M50.5,38.55c0,1.68-1.36,3.03-3.03,3.03s-3.03-1.36-3.03-3.03,1.36-3.03,3.03-3.03,3.03,1.36,3.03,3.03Z"/>
        <path class="cls-6" d="M29.76,38.55c0,1.52-1.12,2.77-2.58,2.99-.47-1.87-.63-3.9-.58-6.02.04,0,.08,0,.13,0,1.68,0,3.04,1.36,3.04,3.04Z"/>
      </g>
      <path class="cls-2" d="M32.19,205.97s-2.69,3.63,1.41,3.63,5.87-3.63,5.87-3.63l-.25,6.91h-21.98l14.96-6.91Z"/>
      <path class="cls-2" d="M58.23,207.1s3.36,3.29,6.91,2.83c1.65-.5.28-2.96.28-2.96l12.31,5.91h-18.3l-1.2-5.78Z"/>
      <g>
        <path class="cls-3" d="M75.35,73.68l-3.19,6.63,4.58,7.06c2.66-1.58,5.3-3.21,7.95-4.86l-9.34-8.83Z"/>
        <path class="cls-1" d="M71.76,124.13c-.46.08-.76.17-.76.17.27-.04.52-.1.76-.17Z"/>
        <path class="cls-1" d="M84.69,82.52c-2.65,1.64-5.29,3.28-7.95,4.86l5.81,8.95-13.23,14.48c-4.31,2.25-7.56,7.38-7.56,10.26s3.21,3.23,3.21,3.23c.32,4.2,3.69,3.69,3.69,3.69,1.92,2.6,8.07.69,7.53-1.39-.7-2.71-3.16-2.68-4.43-2.48-.24.07-.49.13-.76.17,0,0,.31-.1.76-.17,4.17-1.18,4.43-5.95,4.43-5.95l17.22-18.84c2.33-2.55,2.19-6.51-.32-8.89l-8.39-7.94Z"/>
        <path class="cls-2" d="M58.42,54.85l1.71,15.31,11.66,13.04c3.63-2.45,7.17-5.05,10.76-7.6-11.96-10.53-24.13-20.75-24.13-20.75Z"/>
      </g>
      <g>
        <g>
          <polygon class="cls-7" points="25.33 86.81 23.09 119.51 43.27 119.91 44.9 87.39 25.33 86.81"/>
          <polygon class="cls-4" points="30.18 85.63 29.9 87.9 40.85 88.06 40.52 86.04 30.18 85.63"/>
        </g>
        <path class="cls-1" d="M44.15,104.23c.89-.79,1.59-1.87,1.66-3.06.07-1.19-.61-2.46-1.75-2.81.19.71.22,1.46.1,2.18-1.84.45-3.7.79-5.58,1.02,1.04-.9,1.85-2.07,2.33-3.36.08-.21.15-.44.1-.67-.07-.33-.38-.55-.7-.66-1.08-.39-2.26.16-3.28.69-2.41,1.25-4.82,2.5-7.23,3.74l-19.03-3.49,3.21-8.11c-2.9-.72-5.8-1.45-8.7-2.13-3.71,7-6.62,14.41-4.63,17.83,3.86,6.66,32.54,9.56,32.54,9.56,2.3.18,4.62.03,6.88-.45,1.3-.28,2.65-.71,3.55-1.69.9-.98,1.15-2.67.21-3.61.9-.55,1.66-1.43,1.8-2.48.15-1.04-.46-2.22-1.48-2.49Z"/>
      </g>
    </g>
  </g>
</svg>