<?xml version="1.0" encoding="UTF-8"?>
<svg id="Calque_2" data-name="Calque 2" xmlns="http://www.w3.org/2000/svg" xmlns:xlink="http://www.w3.org/1999/xlink" viewBox="0 0 500.16 383.81">
  <defs>
    <style>
      .cls-1 {
        fill: #d6a498;
      }

      .cls-1, .cls-2, .cls-3, .cls-4, .cls-5, .cls-6, .cls-7, .cls-8, .cls-9, .cls-10, .cls-11, .cls-12, .cls-13, .cls-14, .cls-15, .cls-16, .cls-17, .cls-18, .cls-19, .cls-20, .cls-21, .cls-22, .cls-23, .cls-24, .cls-25, .cls-26, .cls-27, .cls-28 {
        fill-rule: evenodd;
      }

      .cls-29 {
        fill: none;
      }

      .cls-2, .cls-30, .cls-31 {
        fill: #0b4891;
      }

      .cls-3 {
        fill: #f0beb4;
      }

      .cls-4 {
        fill: #84fafa;
      }

      .cls-5, .cls-32 {
        fill: #fff;
      }

      .cls-6 {
        fill: #e6aea3;
      }

      .cls-7 {
        fill: #fbc9be;
      }

      .cls-8 {
        fill: #3dd1d1;
      }

      .cls-9 {
        fill: #67ebeb;
      }

      .cls-10 {
        fill: #00204a;
      }

      .cls-11 {
        fill: #7d454e;
      }

      .cls-33, .cls-17 {
        fill: #ff264a;
      }

      .cls-12 {
        fill: #ff4564;
      }

      .cls-13 {
        fill: #e0a498;
      }

      .cls-14 {
        fill: #d19c90;
      }

      .cls-15 {
        fill: #2e77d1;
      }

      .cls-34 {
        fill: #d4eeff;
      }

      .cls-16 {
        fill: #945963;
      }

      .cls-18 {
        fill: #ffcec4;
      }

      .cls-35 {
        fill: #dbf1ff;
      }

      .cls-19 {
        fill: #b0897f;
      }

      .cls-31 {
        stroke: #3f5f69;
        stroke-miterlimit: 22.93;
        stroke-width: .22px;
      }

      .cls-20 {
        fill: #ebf9ff;
      }

      .cls-21 {
        fill: #4186db;
      }

      .cls-22 {
        fill: #f03e5b;
      }

      .cls-22, .cls-24 {
        opacity: .08;
      }

      .cls-23 {
        fill: #cee7f2;
      }

      .cls-24 {
        fill: #ff5765;
      }

      .cls-25 {
        fill: #ff6680;
      }

      .cls-26 {
        fill: #4f2b31;
      }

      .cls-36 {
        clip-path: url(#clippath);
      }

      .cls-27 {
        fill: #e0b6ac;
      }

      .cls-28 {
        fill: #1a61b8;
      }
    </style>
    <clipPath id="clippath">
      <rect class="cls-29" y="7.24" width="500.16" height="376.57"/>
    </clipPath>
  </defs>
  <g id="OBJECTS">
    <g>
      <g class="cls-36">
        <g>
          <path class="cls-11" d="M372.46,20.46c5.91-3.75,12.26-1.64,17.9,1.49,3.34,1.85,5.66,6.13,8.7,9.83,1.09,1.32,5.25,3.23,7.34,5.25,2.84,2.75,1.04,5.68,2.15,8.32,1.04,2.47,5.4,5.87,5.58,7.92.25,2.88-.95,5.31-.13,8.99.97,4.35,2.55,5.26,4.11,9.58,1.64,4.53-1.88,8.02-.82,10.05,1.1,2.1,1.32,4.52.93,6.57-.37,1.89-3.46,2.65-4.7,4.6-1.41,2.22-.37,7.66-3.2,9.51-3.56,2.33-4.94,1.43-8.13,2.54-4.27,1.48-1.61,4.6-7.27,6.41-1.63.52-9.44-1.75-11.67-1.55-5.47.48-6.97,4.18-12.19,3.96-4.58-.19-5.69-5.19-10.6-5.17-4.54.01-6.96.69-10.08-1.02-4.2-2.31-2.52-3.61-6.01-6.4-1.9-1.53-5.78-2.31-8.26-5.05-2.34-2.58-2.76-6.13-2.68-8.69.08-2.54-3.25-6.16-2.63-9.55.49-2.69,2.15-5.8,2.97-9.27,1.28-5.45-1.79-8.06.64-14.95,1.15-3.27,6.34-5.6,7.61-8.83,1.43-3.62-.33-7.08,1.67-10.25,2.17-3.44,7.48-4.32,10.39-6.92,3.12-2.78,4.39-6.29,8.21-7.41,4.49-1.33,6.31,2.53,10.19.06Z"/>
          <path class="cls-6" d="M423.47,126.46c5.2,17.18,9.13,43.58,9.5,61.54.29,14.37-14.36,12.28-19.02-1.32-7.95-23.18-11.08-36.8-13.06-59.09-1.37-15.48,17.11-19.25,22.59-1.13Z"/>
          <path class="cls-4" d="M432.86,158.33c-7.2,1.8-18.77,5.64-27.59,5.14-2.94-11.58-6.2-25.19-4.91-35.15,2.95-22.8,12.51-27.98,22.17-4.48,5.82,14.18,7.68,22.01,10.33,34.48Z"/>
          <path class="cls-4" d="M424.87,498.2c-6.32,3.09-34.49,5.96-42.85-.03-3.45-70.56,4.91-87.95,7.02-125.69,1.29-23,34.42-19.91,33.51,4.79-1.82,49.28,4.08,103.05,2.31,120.93Z"/>
          <path class="cls-4" d="M381.02,232.84c-2.73,17.46-9.24,43.84-5.52,62.56,2.06,31.29,11.17,54.47,14.13,85.76,1.46,15.49,32.55,17.29,32.61-1.61.17-49.28,11.79-81.38-2.95-147.15-14.04.16-24.23.27-38.27.43Z"/>
          <path class="cls-8" d="M376,301.61c2.91,16.03,4.81,33.37,8.13,45.47-1.98-24.12-3.19-43.65,9.97-50.06-5.53,2.43-13.05,3.06-18.1,4.59Z"/>
          <path class="cls-4" d="M382.25,229.02c7.98,51.06-5.12,106.88-9.35,158.04-1.28,15.51-34.62,15.78-34.64-3.12-.04-49.28-21.12-114.02,9.32-152.94,13.45,0,21.22-1.99,34.67-1.99Z"/>
          <path class="cls-4" d="M368.87,508.9c-7.01,4.75-22.19,6.96-35.53.96-2.2-56.17,2.96-98.71,6.6-136.46,2.22-23,36.21-23.03,34.32,1.88-3.76,49.68-2.89,115.73-5.38,133.62Z"/>
          <path class="cls-8" d="M423.96,255.88c-11.31,9.2-68.77,13.91-88.11-1.8,4.92-16.22,74.61-21.55,88.11,1.8Z"/>
          <path class="cls-9" d="M423.96,255.88c-.82-4.27-1.99-17.62-3.85-41.99-2.78-36.32-1.51-81.55-9.54-104.82-19.9-4.41-41.33-7.43-69.3,1.94-6.4,16.94-3.61,67.48-5.22,106.31-.8,19.42-2.69,27.88-4.39,36.02,27.54,12.28,68.05,9.79,92.3,2.54Z"/>
          <path class="cls-7" d="M360.99,106.16c7.23,12,23.49,26.04,33.47,31.62,2.49-7.87,5.03-20.42,5.45-30.84-11.86-2.06-24.51-3.02-38.91-.79Z"/>
          <path class="cls-8" d="M401.27,107.09c-.82-.3-1.79-.5-2.71-.43-1.13,42.26-35.19,91.59-63.85,122.47-.48,1.79-.83,3.83-1.3,5.33,29.79-31.1,66.66-82.74,67.86-127.36Z"/>
          <path class="cls-3" d="M352.57,144.1c-1.36,14.05-5.36,47.14-9.58,58.91-4.85,13.53-17.13,9.78-17.44-4.6-.55-25.57,1.02-68.04,12.61-82.09,9.73-11.8,16.37,7.42,14.4,27.79Z"/>
          <path class="cls-4" d="M351.09,166.61c-7.94-1.13-20.94-4.88-28.99-8.53,1.44-11.86,6.71-29.65,11.5-38.47,10.98-20.2,24.51-.95,22.88,18.51-.62,7.44-2.06,15.94-5.4,28.49Z"/>
          <path class="cls-8" d="M362.28,105.72c-.63.03-2.14.27-2.83.57,2.38,3.35,6.94,9.51,12.63,15.42,5.71,5.93,13,12.26,21.71,17.25.65.37,1.48.15,1.85-.5.37-.65.15-1.48-.5-1.85-8.47-4.85-15.56-11.01-21.11-16.77-5.57-5.78-9.42-10.83-11.75-14.11Z"/>
          <path class="cls-3" d="M374.99,248.17c-10.41-8.3-42.27-34.61-46.82-40.97-4.26-7.04,4.08-22.31,13.78-11.69,6.03,6.61,24.86,28.17,40.03,45.56,3.09,3.55-2.11,10.98-6.99,7.09Z"/>
          <path class="cls-6" d="M394.12,255.97c-6.65,5.48-13.09,9.62-13.96,7.68-1.35-2.99,10.52-9.64,13.8-15.06-2.07,1.23-5.68,3.13-6.59,1.92-3.12-4.16,22.73-15.03,27.08-9.53,7.26,9.18-20.07,34.34-23.2,30.88-1.11-1.23,2.85-2.56,7.43-8.7-5.45,5.38-11.84,11.16-13.8,8.59-1.08-1.42,8.01-7.59,11.84-12.28-5.38,4.17-14.72,11.97-15.75,9.93-1.34-2.65,8.77-8.15,13.15-13.43Z"/>
          <path class="cls-3" d="M398.25,253.99c7.3,4.59,14.2,7.88,14.82,5.84.95-3.14-11.66-8.22-15.6-13.18,2.21.95,6.03,2.38,6.78,1.07,2.57-4.52-24.45-12.02-28.07-6.01-6.03,10.03,24.27,31.52,26.93,27.68.94-1.36-3.15-2.18-8.48-7.69,6.09,4.65,13.16,9.56,14.78,6.77.89-1.55-8.91-6.51-13.3-10.68,5.86,3.46,16.12,10,16.89,7.85.99-2.8-9.73-6.97-14.75-11.65Z"/>
          <path class="cls-6" d="M415.66,245.1c5.36-12.18,16.59-42.33,17.66-50.07.49-8.22-9.44-17.36-14.4-3.87-3,8.15-7.4,28.46-12.74,50.9-1.09,4.58,6.97,8.74,9.48,3.03Z"/>
          <g>
            <rect class="cls-33" x="360.26" y="140.02" width="23.21" height="14.62" transform="translate(-3.47 9.08) rotate(-1.39)"/>
            <rect class="cls-32" x="369.88" y="135.67" width="3.63" height="8.7" transform="translate(-3.29 9.07) rotate(-1.39)"/>
            <rect class="cls-32" x="371.82" y="145.02" width="9.24" height=".69" transform="translate(-3.42 9.2) rotate(-1.39)"/>
            <rect class="cls-32" x="371.87" y="146.93" width="9.24" height=".69" transform="translate(-3.47 9.19) rotate(-1.39)"/>
            <rect class="cls-32" x="371.91" y="148.83" width="9.24" height=".69" transform="translate(-3.52 9.2) rotate(-1.39)"/>
            <rect class="cls-32" x="371.96" y="150.74" width="9.24" height=".69" transform="translate(-3.56 9.19) rotate(-1.39)"/>
            <polygon class="cls-5" points="364.08 142.97 367 142.85 367.07 146.03 370.02 145.91 370.09 149.06 367.15 149.18 367.22 152.36 364.3 152.49 364.23 149.31 361.28 149.43 361.21 146.28 364.15 146.15 364.08 142.97"/>
          </g>
          <g>
            <path class="cls-1" d="M66.39,118.13c-12.14,22.62-25.21,53-29.13,71.8-1.96,9.39,8.01,17.82,18.22,8.85,16.98-14.92,31.75-52.09,42.58-70.28,12.89-21.65-20.42-31.35-31.68-10.37Z"/>
            <path class="cls-5" d="M47.73,149.65c7.53,4.38,22.83,10.52,31.62,11.5,5.53-11.08,9.8-27.44,11.48-38.04,3.69-23.4-9.77-27.85-24.83-10.59-4.49,5.15-14.69,24.54-18.27,37.13Z"/>
            <path class="cls-5" d="M84.73,503.06c6.6,3.23,27.63,4.26,36.36-2,3.6-73.7.23-95.25-1.98-134.68-1.35-24.02-35.96-20.8-35,5,1.9,51.48-1.23,113,.62,131.68Z"/>
            <path class="cls-5" d="M127.5,220.53c2.85,18.24,3.33,44.63-.55,64.18-2.15,32.68-6.29,58.07-8.44,90.75-1.07,16.22-34,18.06-34.07-1.68-.18-51.48-4.6-95.68-.94-153.74,14.67.16,29.33.33,44,.49Z"/>
            <path class="cls-23" d="M127.47,281.88c-2.42,14.05-2.98,31.37-4.5,45.97.06-24.2,1.46-43.24-12.16-50.17,5.7,1.98,11.05,2.26,16.66,4.2Z"/>
            <path class="cls-5" d="M122.42,220.53c-2.85,18.24-3.99,38.66-.11,58.21,2.69,32.51,10.98,70.37,13.67,102.88,1.34,16.2,36.17,16.48,36.18-3.25.04-51.47,8.4-101.95-1.75-159.92-14.05,0-33.94,2.09-47.98,2.09Z"/>
            <path class="cls-5" d="M143.05,512.28c7.32,4.96,22.1,5.48,36.04-.78,2.3-58.67-4.88-104.71-8.68-144.14-2.32-24.02-37.82-24.05-35.85,1.96,3.93,51.89,5.88,124.28,8.48,142.96Z"/>
            <path class="cls-23" d="M82.29,247.83c4.97,12.68,66.01,16.63,91.62-2.74-19.78-18.52-82.87-17.53-91.62,2.74Z"/>
            <path class="cls-20" d="M75.44,103.76c-2.03,31.24,1.72,55.98,4.68,77.52,2.39,17.43.37,39.48-3.21,64.61,31.1,12.04,70.9,12.16,101.38-2.83-2.72-12.51-6.93-32.16-7.05-52.59-.14-23.4,14.26-48.89,12.04-80.42-31.72-28.43-95.19-16.84-107.85-6.29Z"/>
            <path class="cls-27" d="M185.04,265.76c3.52-12.84,17.21-50.22,15.04-61.52-2.34-12.17-15.22-15.86-20.67-2.55-5.87,14.32.52,29.3-6.14,61.09-.96,4.6,10.12,9,11.77,2.98Z"/>
            <path class="cls-27" d="M170.56,271.96c-4.4,8.8-9.19,16.11-11.01,14.49-2.79-2.5,6.51-14.94,7.41-22.12-1.59,2.24-4.48,5.9-5.98,5.07-5.19-2.89,16.75-26.23,23.84-22.51,11.83,6.21-5.01,45.15-9.88,42.99-1.73-.77,1.78-3.99,3.72-12.53-3.19,8.15-7.18,17.14-10.41,15.37-1.79-.98,4.84-11.64,6.66-18.31-3.68,6.85-9.81,19.32-11.83,17.67-2.63-2.14,5.37-12.57,7.49-20.12Z"/>
            <path class="cls-27" d="M125.37,40.52h0c-7.78-.25-14.36,5.79-14.61,13.42l-1.29,39.41c-.21,6.5-3.04,18.36,6.53,19.31,14.14,1.42,21.52-10.75,21.77-18.39l1.29-39.41c.25-7.64-5.91-14.1-13.7-14.35Z"/>
            <path class="cls-27" d="M147.85,94.13c-10.47,14.69-29.21,30.55-41.14,37.22-2.96-9.35-5.97-23.74-6.93-36.54,13.93-2.71,31.49-3.67,48.08-.69Z"/>
            <path class="cls-23" d="M100.92,94.33c-.77.04-1.71.09-2.49.64,1.4,12.72,4.89,35.04,15.82,59.42,10.94,24.4,29.84,51.32,61.01,72.27.11-1.89.23-2.59-.58-3.74-29.41-20.38-47.44-46.16-57.95-69.63-10.77-24.04-14.42-46.41-15.8-58.96Z"/>
            <path class="cls-19" d="M109.38,87.19c6.7-14.17,16.51-9.35,28.6.88-7.2,20.06-27.93,14.65-28.6-.88Z"/>
            <path class="cls-27" d="M133.88,11.89c-20.23-3.76-35.25,14.8-36.28,38.36-1.11,25.5,5.54,36.16,17.13,39.06,15.74,3.94,31.24-7.91,40.15-24.12,12.16-22.14,7.09-48.08-20.99-53.3Z"/>
            <path class="cls-26" d="M116.38,36.69c2.02.63,3.3-1.97,1.4-2.89-3.59-1.74-9.25-1.99-11.97-.06-1.72,1.22-.82,3.06,1.19,2.43,2.52-.8,6.88-.26,9.38.53Z"/>
            <path class="cls-19" d="M120.52,62.91c-5.89-2.39-3.79-6.21-1.31-11.27-4.64,3.63-7.67,9.74,1.31,11.27Z"/>
            <path class="cls-19" d="M106.89,64.21c5.49,3.23,13.74,5.77,24.97,5.02-7.13,3.89-22.79.54-24.97-5.02Z"/>
            <path class="cls-26" d="M132.15,36.14c-2.1.21-1.79,3.11.32,3.2,1.8.07,5.89.96,9.24,2.78,1.85,1.01,3.05-.32,1.7-1.94-2.39-2.88-7.29-4.45-11.26-4.04Z"/>
            <path class="cls-19" d="M111.18,72.08c3.65,1.34,7.31,2.6,12.16,2.7-2.57,2.56-11.08,1.13-12.16-2.7Z"/>
            <path class="cls-10" d="M137.13,47.94c-1.2-.27-2.41.51-2.69,1.75-.28,1.24.47,2.47,1.67,2.74,1.2.27,2.41-.51,2.69-1.75.28-1.24-.47-2.47-1.67-2.74Z"/>
            <path class="cls-10" d="M112.97,42.52c-1.2-.27-2.41.51-2.69,1.75-.28,1.24.47,2.47,1.67,2.74,1.2.27,2.41-.51,2.69-1.75.28-1.24-.47-2.47-1.67-2.74Z"/>
            <path class="cls-27" d="M177.9,204.2c4.86,14.72,22.58,13.81,22.62.22.08-28.59-4.34-46.25-8.62-67.39-7.45-36.83-35.59-30.51-26.23,18.26,4.08,21.27,3.55,22.64,12.23,48.91Z"/>
            <path class="cls-24" d="M108.11,51.32c-3.59-.45-6.75.86-7.06,2.93-.31,2.06,2.34,4.1,5.93,4.55,3.59.45,6.75-.86,7.06-2.93.31-2.06-2.34-4.1-5.93-4.55Z"/>
            <path class="cls-24" d="M134.66,56.35c3.42,1.17,5.68,3.74,5.05,5.73-.63,1.99-3.91,2.65-7.33,1.48-3.42-1.17-5.68-3.74-5.05-5.73.63-1.99,3.91-2.65,7.33-1.48Z"/>
            <path class="cls-5" d="M167.88,178.29c8.71-.36,28.21-7.77,36.14-11.67-.71-13.46-10.45-43.47-16.37-51.87-11.33-16.08-23.69-5.52-25.26,16.29-.49,6.82,1.76,34.81,5.49,47.25Z"/>
            <path class="cls-23" d="M149.5,94.14c-1.43-.71-1.76-.58-3.15-.37-5.33,6.43-12.84,14.87-21.41,22.65-6.11,5.55-12.53,10.5-18.48,13.52-.67.34-.94,1.15-.6,1.82.34.67,1.15.94,1.82.6,6.2-3.14,12.82-8.24,19.09-13.94,8.69-7.89,17.35-17.79,22.74-24.29Z"/>
            <polygon class="cls-17" points="144.01 139.58 139.54 139.14 139.54 144.36 135.02 143.92 135.02 149.1 139.54 149.54 139.54 154.76 144.01 155.2 144.01 149.98 148.52 150.42 148.52 145.24 144.01 144.8 144.01 139.58"/>
            <path class="cls-19" d="M108.66,63.5c-1.36.13-2.29,1.04-3.14,2.08-.46-1.51,1.64-3.16,3.14-2.08Z"/>
            <path class="cls-19" d="M129.69,68.18c1.33.31,2.13,1.35,2.82,2.49.66-1.43-1.19-3.35-2.82-2.49Z"/>
            <g>
              <path class="cls-28" d="M134.87,194.1l-15.55-49.15c-.89-2.8-4.07-4.91-7.08-4.68l-41.47,3.16c-3.01.23-4.75,2.71-3.86,5.51l15.55,49.15c.89,2.8,4.07,4.91,7.08,4.68l41.47-3.16c3.01-.23,4.75-2.71,3.86-5.51Z"/>
              <path class="cls-17" d="M99.73,139.7l-3.75.29-1.05-3.31c-.26-.83-1.19-1.49-2.22-1.64l-.02-.07c-.33-1.15-1.82-1.99-3.26-1.88-1.44.11-2.3,1.13-1.94,2.28l.02.07c-.89.29-1.36,1.06-1.1,1.89l1.05,3.31-3.75.29c-1.92.15-3.09,1.52-2.61,3.06l.23.72,23-1.76-.23-.72c-.49-1.54-2.46-2.68-4.38-2.53h0ZM89.8,134.24c.64-.05,1.28.32,1.44.83.16.51-.22.96-.86,1.01-.64.05-1.28-.32-1.44-.83-.16-.51.22-.96.86-1.01Z"/>
            </g>
            <path class="cls-27" d="M120.58,172.05c7.65-3.75,8.85-6.62,7.82-8.81-1.57-3.36-3.77,4.7-14.03,3.22,2.57-.87,6.87-2.56,6.5-4.23-1.26-5.74-29.63,8.4-28.12,16.17,2.51,12.98,44.36,9.65,40.35,1.77-.85-1.67-1.09,1.67-9.73,1.06,8.63-.7,9.24-3.17,8.49-6.74-.42-1.98-3.36,2.52-10.21,2.34,7.54-1.53,10.12-5.74,9.13-8.12-1.28-3.1-2.46,3.45-10.21,3.32Z"/>
            <path class="cls-27" d="M104.8,184.13c-12.72,3.92-47.31,19.99-58.67,18.18-12.24-1.95-11.05-15.08.81-23.21,11.58-7.93,22.95,1.03,54.51-6.64,4.57-1.11,9.31,9.83,3.35,11.67Z"/>
            <g>
              <path class="cls-26" d="M97.15,53.11c3.18-12.44,5.23-30.63,14.84-33.85,6.42-2.15,8.33,2.64,15.41,3.59,5.14.69,11.38-2.78,18.1,2.22,10.11,7.51,6.72,26.67,4.58,34.68-1.08,4.04,4.42,1.69,5.88,2.11,1.06-1.83,1.58-1.66,2.06-3.86.22.14.65-2.07.86-1.99,3.8-10.1,5.48-30.74-11.96-40.22-25.42-13.81-44.11-.56-49.54,27.71-.59,3.06-.84,7.16-.23,9.6Z"/>
              <path class="cls-26" d="M107.91,60.35c4.83-.12,8.22,2.54,10.94,2.97,2.65.42,11.48,1.04,15.37,3.1,3.27,1.73,4.29,5.19,6.2,4.77,5.16-1.13,10.39-10.5,10.98-16.89.7-6.42,5.45.57,5.01,3-.44,2.43.35,6.49-5.69,18.37-11.31,22.27-48.51,21.02-54.91-6.55-1.81-7.82.57-17.37,1.14-23.44.44-4.7,5.07-12.72,3.25-6-2.52,9.26-3.84,21.63.15,22.92,1.41.46,3.17-2.15,7.57-2.26h0ZM102.16,67.55c-.72,3.18,1.02,11.42,8.42,13.07,2.17.48,3.43-.98,5.48-.65,2.05.33,2.27,2.85,5.66,3.29,8.88,1.14,13.15-3.77,14-8.3.72-3.83-.43-5.38-3.08-6.72-4.03-2.03-9.76-.56-14.38-1.77-4.33-1.14-6.85-3.01-10.05-3.56-2.24-.38-5.2.9-6.05,4.64Z"/>
            </g>
            <path class="cls-27" d="M160.86,52.18c-1.87-.83-4.84,1.75-6.62,5.76-1.78,4.01-1.71,7.94.16,8.77,1.87.83,4.84-1.75,6.62-5.76,1.78-4.01,1.71-7.94-.16-8.77Z"/>
          </g>
          <g>
            <path class="cls-15" d="M258.79,219.43c-5.94,51.39.69,115.17,2.87,165.96.66,15.55,34.62,15.78,34.64-3.12.04-49.28,22.64-127.05-10.96-169.6-13.45,0-13.09,6.76-26.54,6.76Z"/>
            <path class="cls-15" d="M265.69,507.24c7.01,4.75,22.19,6.96,35.53.96,2.2-56.17-2.96-98.71-6.6-136.46-2.22-23-36.21-23.03-34.32,1.88,3.76,49.68,2.89,115.73,5.38,133.62Z"/>
            <path class="cls-15" d="M255.9,223.75c7.88,51.33-2.3,110.77-6.47,161.64-1.27,15.51-34.62,15.78-34.64-3.12-.04-49.28-20.9-113.68,8.38-170.54,13.45,0,19.28,12.02,32.73,12.02Z"/>
            <path class="cls-15" d="M245.4,507.24c-7.01,4.75-22.19,6.96-35.53.96-2.2-56.17,2.96-98.71,6.6-136.46,2.22-23,36.21-23.03,34.32,1.88-3.76,49.68-2.89,115.73-5.38,133.62Z"/>
            <path class="cls-2" d="M302.49,258.45c-15.63,15.07-72.93,16.88-92.98-3.05,4.92-16.22,79.48-20.3,92.98,3.05Z"/>
            <path class="cls-10" d="M266.26,150.63c-49.47,7.44-57.61-28.78-52.94-65.48,4.6-36.16,16.52-61.14,41.74-61.2,27.32-.06,39.52,30.43,43.62,60.08,4.89,35.3,4.8,61-32.42,66.6Z"/>
            <path class="cls-7" d="M289.13,146.66c6.05,12.75,21.61,39.07,29.57,48.71,9.16,11.08,19.43,3.38,14.84-10.25-8.17-24.24-24.62-60.2-40.3-69.49-13.16-7.8-12.88,12.54-4.11,31.03Z"/>
            <path class="cls-15" d="M298.24,170.91c7.5-2.85,18.15-10.39,25.2-15.73-4.01-11.25-17.42-32.15-26.68-39.19-18.31-13.91-16.93,9.52-11.06,28.14,2.24,7.12,6.36,17.12,12.54,26.78Z"/>
            <path class="cls-7" d="M225.74,146.66c-6.05,12.75-21.61,39.07-29.57,48.71-9.16,11.08-19.43,3.38-14.84-10.25,8.17-24.24,24.62-60.2,40.3-69.49,13.16-7.8,12.88,12.54,4.11,31.03Z"/>
            <path class="cls-15" d="M216.62,170.91c-7.5-2.85-18.15-10.39-25.2-15.73,4.01-11.25,17.42-32.15,26.68-39.19,18.31-13.91,16.93,9.52,11.06,28.14-2.24,7.12-6.36,17.12-12.54,26.78Z"/>
            <path class="cls-28" d="M306.66,257.31c-2.18-13.05-9.11-23.82-9.67-28.43-4.72-38.8-5.37-75.05-7.02-117.14-19.9-4.41-39.76-5.63-65.27.82.59,35.16-1.02,76.18-6.94,110.15-2.02,11.6-8.98,22.23-10.52,31.73,27.54,12.28,75.18,10.13,99.42,2.87Z"/>
            <path class="cls-7" d="M238.34,109.72c2.74,12.35,10.49,37.28,20.22,42.72,4.93-5.74,17.07-32.72,18.27-43.1-12-1.67-24.43-1.85-38.49.38Z"/>
            <path class="cls-2" d="M276.51,109.11c.75.14,1.84.06,2.56.4-13.96,38.69-27.34,78.92-60.8,109.16.06-1.42.32-3.56.77-5.25,32.82-32.23,45.62-70.58,57.47-104.3Z"/>
            <path class="cls-7" d="M267.92,82.53l-21.43.08.1,25.71c.04,10.69,21.47,9.97,21.43-.08l-.1-25.71Z"/>
            <path class="cls-14" d="M246.55,96.43c2.86,22.42,21.07,21.97,21.4,3.39l-21.4-3.39Z"/>
            <path class="cls-7" d="M259.38,30.5c41.47,1.83,26.91,75.05-2.1,71.98-31.89-3.38-42.98-73.97,2.1-71.98Z"/>
            <path class="cls-10" d="M268.61,60.25c-1.17.07-2.06,1.11-1.99,2.32.08,1.21,1.09,2.13,2.26,2.06,1.17-.07,2.06-1.11,1.99-2.32-.08-1.21-1.09-2.13-2.26-2.06Z"/>
            <path class="cls-10" d="M247.31,60.37c-1.17.07-2.06,1.11-1.99,2.32.08,1.21,1.09,2.13,2.26,2.06,1.17-.07,2.06-1.11,1.99-2.32-.08-1.21-1.09-2.13-2.26-2.06Z"/>
            <path class="cls-14" d="M259.15,76.37c5.02-1.25,3.76-4.57,2.34-8.93,3.32,3.45,5.07,8.72-2.34,8.93Z"/>
            <path class="cls-10" d="M249.65,56.9c1.51.18,2.39-1.69.53-2.22-2.7-.77-8.11.26-9.75,1.82-1.04.99-.4,1.99.95,1.5,2.31-.85,7.23-1.22,8.28-1.1Z"/>
            <path class="cls-10" d="M266.08,57.14c-1.37.33-2.35-1.46-.68-2.16,2.41-1.01,6.86-.61,9.12.95,1.12.77.53,1.98-.73,1.54-1.78-.62-6.37-.65-7.71-.33Z"/>
            <path class="cls-22" d="M246,68.8c-3.72.66-6.48,2.95-6.15,5.11.33,2.16,3.61,3.37,7.34,2.71,3.72-.66,6.48-2.95,6.15-5.12-.33-2.16-3.62-3.37-7.34-2.71Z"/>
            <path class="cls-22" d="M271.18,67.73c3.47.3,6.2,2.31,6.11,4.5-.09,2.18-2.98,3.71-6.44,3.4-3.47-.3-6.2-2.31-6.11-4.5.09-2.18,2.98-3.71,6.44-3.41Z"/>
            <path class="cls-14" d="M269.13,81.02c-6.83.05-13.88.22-20.85.52,2.76,9.35,16.2,13.06,20.85-.52Z"/>
            <path class="cls-5" d="M265.82,81.86c-5.78.05-8.64.19-14.54.44,1.07,2.31,13.45,2.59,14.54-.44Z"/>
            <g>
              <rect class="cls-33" x="227.54" y="147.35" width="23.21" height="14.62" transform="translate(-3.68 5.85) rotate(-1.39)"/>
              <rect class="cls-32" x="237.16" y="143" width="3.63" height="8.7" transform="translate(-3.51 5.85) rotate(-1.39)"/>
              <rect class="cls-32" x="239.1" y="152.35" width="9.24" height=".69" transform="translate(-3.64 5.97) rotate(-1.39)"/>
              <rect class="cls-32" x="239.15" y="154.25" width="9.24" height=".69" transform="translate(-3.68 5.97) rotate(-1.39)"/>
              <rect class="cls-32" x="239.19" y="156.16" width="9.24" height=".69" transform="translate(-3.73 5.98) rotate(-1.39)"/>
              <rect class="cls-32" x="239.24" y="158.07" width="9.24" height=".69" transform="translate(-3.78 5.97) rotate(-1.39)"/>
              <polygon class="cls-5" points="231.36 150.3 234.28 150.18 234.35 153.36 237.29 153.23 237.37 156.39 234.43 156.51 234.5 159.69 231.58 159.82 231.51 156.64 228.56 156.76 228.49 153.61 231.43 153.48 231.36 150.3"/>
            </g>
            <path class="cls-7" d="M310.62,240.38c6.65-10.2,23.83-41.12,24.01-48.94-.45-8.22-16.21-15.96-20.4-2.2-4.91,16.14-3.07,21.61-9.03,42.16-1.31,4.52,2.01,14.2,5.41,8.98Z"/>
            <path class="cls-28" d="M266.68,302.1c-4.95.94-11.66,1.62-18.86,0,6.29,5.24,12.62,5.05,18.86,0Z"/>
            <path class="cls-2" d="M235.71,109.98c1.17-.29,2.06-.49,2.69-.46,4.49,16.3,10.17,30.18,20.98,41.83.22.24-1.09,2.98-1.31,2.74-11.56-12.46-18.19-28.79-22.36-44.1Z"/>
            <path class="cls-7" d="M290.72,229.52c-7.16-2.38-16.36-1.08-15.35-2.99,1.55-2.94,15.57-2.52,21.37-.41-.12-.75,0-3.07-.74-4.4,5.38-1.15,21.78,19.1,11.69,20.92-4.78.86-11.29-.92-17.11-.62-8.68.44-12.55,3.44-13.38,1.86-.78-1.48,2.23-4.81,9.43-5.63-7.74-1.48-10.65,2.8-11.63-.31-.82-2.62,7.3-4.32,13.47-3.84-6.68-2.39-14.02,1.19-14.64-1.25-.77-3,9.65-4.63,16.91-3.33Z"/>
            <path class="cls-10" d="M284.56,69.95c-3.03-22.38-13.39-31.93-28.57-30.92-15.3,1.02-22.44,10.57-24.48,34.86-12.16-15.94.97-47.53,21.18-47.35,27.98-2.71,40.42,26.66,31.87,43.41Z"/>
            <path class="cls-10" d="M226.93,56.34c18.7-6.83,42.35-6.96,58.38-.65-9.17-37.6-51.01-39.27-58.38.65Z"/>
            <path class="cls-18" d="M248.64,31.94c-2.97,5.82-4.97,14.64-4.93,22.19l-2.24.21c.28-5.9,2.19-14.36,7.18-22.4Z"/>
            <path class="cls-7" d="M225.48,63.92c1.77-.61,4.25,1.97,5.56,5.75,1.3,3.79.92,7.35-.84,7.95-1.77.61-4.25-1.97-5.56-5.75-1.3-3.79-.92-7.35.84-7.95Z"/>
            <path class="cls-7" d="M288.61,63.92c-1.77-.61-4.25,1.97-5.56,5.75-1.3,3.79-.92,7.35.84,7.95,1.77.61,4.25-1.97,5.56-5.75,1.3-3.79.92-7.35-.84-7.95Z"/>
            <path class="cls-7" d="M202.72,240.04c-6.65-10.2-22.31-40.79-22.49-48.6.45-8.22,16.21-15.96,20.4-2.2,4.91,16.14,1.55,21.27,7.51,41.82,1.31,4.52-2.01,14.2-5.41,8.98Z"/>
            <path class="cls-7" d="M222.96,229.52c7.16-2.38,16.36-1.08,15.35-2.99-1.55-2.94-15.57-2.52-21.37-.41.12-.75,0-3.07.74-4.4-5.38-1.15-21.78,19.1-11.69,20.92,4.78.86,11.29-.92,17.11-.62,8.68.44,12.55,3.44,13.38,1.86.78-1.48-2.23-4.81-9.43-5.63,7.74-1.48,10.65,2.8,11.63-.31.82-2.62-7.3-4.32-13.47-3.84,6.68-2.39,14.02,1.19,14.64-1.25.77-3-9.65-4.63-16.91-3.33Z"/>
            <path class="cls-18" d="M266.48,31.94c2.97,5.82,4.97,14.64,4.93,22.19l2.24.21c-.28-5.9-2.19-14.36-7.18-22.4Z"/>
          </g>
          <g>
            <path class="cls-21" d="M351.03,135.52c0-.46-.37-.84-.83-.85-.46,0-.84.37-.85.83-.06,7.67.71,13.04,2.14,16.59,1.52,3.77,3.8,5.57,6.63,5.89.46.05.88-.28.93-.74.05-.46-.28-.88-.74-.93-2.2-.25-4-1.72-5.26-4.85-1.35-3.35-2.08-8.51-2.02-15.95Z"/>
            <path class="cls-21" d="M375.38,135.73c0-.46-.37-.84-.83-.85-.46,0-.84.37-.85.83-.06,7.44-.88,12.59-2.29,15.92-1.31,3.1-3.14,4.54-5.34,4.76-.46.04-.8.46-.75.92.04.46.46.8.92.75,2.83-.27,5.14-2.03,6.73-5.77,1.49-3.52,2.36-8.88,2.42-16.55Z"/>
            <path class="cls-28" d="M348.98,135.5c0,.34.14.65.36.88h1.67c.23-.21.37-.51.37-.85.03-3.03,1.28-5.76,3.28-7.73,2-1.97,4.75-3.17,7.78-3.14,3.03.03,5.76,1.28,7.73,3.28,1.97,2,3.17,4.75,3.15,7.78,0,.33.13.63.34.85l1.68.05c.24-.22.39-.53.39-.88.03-3.69-1.44-7.05-3.84-9.5-2.4-2.44-5.73-3.97-9.43-4-3.69-.03-7.05,1.44-9.5,3.84-2.44,2.4-3.97,5.73-4,9.43Z"/>
            <path class="cls-28" d="M368.62,158.33l-2.8.77c-.81.22-1.66-.26-1.89-1.07h0c-.22-.81.26-1.66,1.07-1.89l2.8-.77.82,2.96Z"/>
            <path class="cls-28" d="M355.85,157.96l2.58.78c.75.23,1.55-.2,1.77-.95h0c.23-.75-.2-1.55-.95-1.77l-2.57-.78-.82,2.72Z"/>
            <path class="cls-28" d="M371.04,99.46c.29-.26.75-.24,1.01.05.26.29.24.75-.05,1.01-2.74,2.47-4.9,5.35-6.44,8.95-1.55,3.63-2.48,7.99-2.76,13.4-.02.4-.36.7-.75.68-.39-.02-.7-.36-.68-.75.29-5.58,1.25-10.11,2.87-13.89,1.63-3.81,3.9-6.85,6.8-9.46Z"/>
          </g>
          <g>
            <path class="cls-28" d="M408.81,143.36c.1.38-.13.77-.52.87-.38.1-.77-.13-.87-.52-.67-2.67-1.32-5.42-1.96-8.18-3.7-15.82-7.44-31.8-16.94-33.12-.39-.05-.67-.42-.61-.81.05-.39.42-.67.81-.61,10.48,1.45,14.33,17.92,18.14,34.22.64,2.74,1.28,5.48,1.95,8.15Z"/>
            <path class="cls-21" d="M404.05,137.73c-3.21,2.24-3.99,6.66-1.75,9.87,2.24,3.21,6.66,3.99,9.87,1.75,3.21-2.24,3.99-6.66,1.75-9.87-2.24-3.21-6.66-3.99-9.87-1.75Z"/>
            <path class="cls-28" d="M405.45,139.74c-2.1,1.47-2.61,4.36-1.14,6.46,1.47,2.1,4.36,2.61,6.46,1.14,2.1-1.47,2.61-4.36,1.14-6.46-1.47-2.1-4.36-2.61-6.46-1.14Z"/>
          </g>
          <path class="cls-7" d="M368.83,84.57l20.15-1.75,1.97,24.81c.82,10.31-19.38,11.45-20.15,1.75l-1.97-24.81Z"/>
          <path class="cls-14" d="M390.17,95.6c1.88,18.03-15.57,10.77-20.53-.88l20.53.88Z"/>
          <path class="cls-7" d="M373.05,29.45c40.07-5.04,38.05,66.16,9.3,68.57-29.04,2.43-52.86-63.09-9.3-68.57Z"/>
          <path class="cls-7" d="M348.15,61.57c1.72-.6,4.14,1.9,5.42,5.58,1.28,3.68.92,7.14-.8,7.74-1.72.6-4.14-1.9-5.42-5.58-1.28-3.68-.92-7.14.8-7.74Z"/>
          <path class="cls-11" d="M373.81,51.61c1.37.41.77,2.34-.63,2.08-1.71-.33-6.74.38-8.85,1.24-1.32.54-1.74-.2-.7-1.17,2.1-1.95,7.46-2.97,10.18-2.15Z"/>
          <path class="cls-10" d="M369.39,56.77c1.15-.09,2.15.8,2.24,1.98.09,1.18-.76,2.21-1.91,2.3-1.15.09-2.15-.8-2.24-1.98-.09-1.18.76-2.21,1.91-2.3Z"/>
          <path class="cls-10" d="M390.51,55.35c1.15-.09,2.15.8,2.24,1.98.09,1.18-.76,2.21-1.91,2.3-1.15.09-2.15-.8-2.24-1.98-.09-1.18.76-2.21,1.91-2.3Z"/>
          <path class="cls-14" d="M382.93,73.46c4.98-.86,3.99-4.19,2.92-8.54,3,3.6,4.32,8.86-2.92,8.54Z"/>
          <path class="cls-11" d="M386.89,50.59c-1.3.6-.42,2.5.91,1.97,1.74-.69,6.47-.45,8.77.1,1.38.33,1.87-.52.7-1.34-2.34-1.65-7.8-1.92-10.38-.73Z"/>
          <path class="cls-22" d="M367.71,64.81c-3.89,1.05-6.6,3.74-6.05,6,.55,2.26,4.15,3.25,8.04,2.2,3.89-1.05,6.6-3.74,6.05-6-.55-2.26-4.15-3.25-8.04-2.2Z"/>
          <path class="cls-22" d="M395,62.59c3.71,0,6.8,1.88,6.9,4.21.11,2.32-2.82,4.21-6.52,4.21-3.71,0-6.8-1.88-6.9-4.21-.1-2.32,2.82-4.21,6.52-4.21Z"/>
          <path class="cls-14" d="M393.92,75.64c-6.09,1.44-14.9,2.13-23.39,1.54,4.19,2.27,18.23,3.64,23.39-1.54Z"/>
          <path class="cls-14" d="M388.83,80.94c-2.64.62-5.97.85-9.25.77,1.43,1.37,7.24,2.45,9.25-.77Z"/>
          <path class="cls-13" d="M372.78,76.45c-1.4.23-2.31,1.25-3.11,2.38-.58-1.53,1.48-3.4,3.11-2.38Z"/>
          <path class="cls-13" d="M391.98,74.76c1.4.23,2.31,1.25,3.11,2.38.58-1.53-1.48-3.4-3.11-2.38Z"/>
          <path class="cls-11" d="M347.23,84.49c-.95-5.84-.86-8.35.31-10.39,1.35-2.32,3.48-2.3,4.92-3.21.72-.45,1.17-6.48,1.67-7,2.2-2.26,5.61-2.46,7.04-5.51,1.43-3.05.51-4.36,3.11-8.17,2.6-3.81,8.18-3.43,10.7-6.58,2.52-3.15,3.03-6.68,5.45-8.32,4.19-2.84,7.27,1.65,12.06,2.16,8.32.87,4.03,9.61,6.9,15.67.62,1.32,2.88,2.94,3.23,4.76.38,1.93-.53,4.58.04,7.06,1.05,4.55,4.17,9.01,1.76,14.78,18.84-6.29,3.85-58.99-27.25-59.43-36.68-.53-53.57,78.23-29.95,64.18Z"/>
          <path class="cls-16" d="M341.78,52.8c5-1.64,5.77-16.4,7.03-18.16,1.26-1.76,5.39-.92,7.54-2.35,2.14-1.43,3.48-6.69,5.48-8.28,2-1.58,8.97,1.77,11.12.19,2.15-1.58,6.15-4.95,14.2.49-8.44-1.86-9.06,1.87-11.92,3.27-2.87,1.39-9.3-1.22-11.29.36-2,1.58-3.19,7.26-5.33,8.68-2.14,1.43-5.75.04-7.01,1.79-1.26,1.76-4.78,15.48-9.8,13.99Z"/>
          <path class="cls-16" d="M341.5,80.69c-5.71-9.72,2.06-10.73,5.11-14.71,1.42-1.85-.39-6.53,1.18-7.85,1.68-1.41,5.75-1.97,6.65-2.77,3.55-3.14.21-6,3.03-10.32,2.82-4.32,7.1-3.89,9.87-6.68,2.77-2.79.69-3.27,3.28-6.44,2.59-3.18,11.38-4.6,14.92-1.32-5.64-.47-9.34.73-11.93,3.91-2.59,3.18-.51,3.65-3.28,6.44-2.77,2.79-6.93,2.84-9.75,7.15-2.82,4.32.4,6.7-3.15,9.84-1.01.89-5.59,1.26-7.43,3.04-1.27,1.23.65,5.35-.55,6.91-3.18,4.14-9.71,6.15-7.94,12.78Z"/>
          <path class="cls-16" d="M411.53,74.25c.55-6.46-5.14-7.13-5.68-10.74-.43-2.87,1-5.91,1.05-7.41.11-3.4-4-4.49-5.09-7.07-1.09-2.59-.45-9.05-2.6-11.56-2.15-2.51-8.34-1.76-10.61-7.25,1.28,3.12,10.88,2.16,13.03,4.67,2.15,2.51,2.81,8.49,3.9,11.07,1.09,2.59,5.08,3.38,5.91,6.62.75,2.92-1.69,5-1.31,8.78.46,4.61,5.12,6.3,1.41,12.9Z"/>
        </g>
      </g>
      <g>
        <g>
          <path class="cls-12" d="M456.18,182.81c2.5,5.33.25,12.97-2.66,16.15-2.91,3.18-5.68,3.51-7.48,5.74-1.26,1.57-1.05,2.8-2.06,3.86-1.03,1.08-2.54,1.93-2.08,1.06,1.03-1.96-.98-3.82,1.29-6.6,2.26-2.78,4.39-3.91,5.07-7.01.68-3.1,1.48-10.61,7.92-13.2Z"/>
          <path class="cls-17" d="M456.18,182.81c2.5,5.33,1.75,13.31-1.16,16.49-2.91,3.18-7.18,3.17-8.98,5.4-1.26,1.57-1.04,2.84-2.21,4.05-.71.73-2.76,1.86-1.46.79,1.24-1.03,1.07-2.79,1.69-3.93,4.77-8.84,9.48-8.49,12.12-22.81Z"/>
          <path class="cls-25" d="M446.3,201.92c7.42-8.74,7.81-11.3,9.69-25.43.08-.58,1.05-.78,1.02.05-.56,14.68-6.13,21.06-10.57,25.93-.44.49-.64.03-.14-.55Z"/>
        </g>
        <g>
          <rect class="cls-30" x="411.47" y="11.5" width="4.87" height="3.04" transform="translate(109.85 294.16) rotate(-44.56)"/>
          <rect class="cls-31" x="411.17" y="10.79" width="2.8" height="1.75" transform="translate(110.43 292.84) rotate(-44.56)"/>
          <rect class="cls-30" x="433.04" y="36.36" width="8.95" height="1.27" transform="translate(99.82 317.62) rotate(-44.56)"/>
          <rect class="cls-30" x="432.58" y="32" width="5.78" height="5.84" transform="translate(100.7 315.61) rotate(-44.56)"/>
          <polygon class="cls-2" points="402.02 .55 400.92 0 401.46 1.11 411.67 11.32 412.24 10.76 402.02 .55"/>
          <rect class="cls-32" x="419.37" y="9.56" width="8.64" height="26.78" transform="translate(105.7 303.89) rotate(-44.56)"/>
          <rect class="cls-35" x="416.54" y="12.47" width="6.69" height="13.24" transform="translate(107.33 300.11) rotate(-44.56)"/>
          <rect class="cls-30" x="427.14" y="31.4" width="11.53" height="1.83" transform="translate(101.79 313.06) rotate(-44.56)"/>
          <rect class="cls-30" x="430.33" y="28.35" width="1.49" height="4.2" transform="translate(102.56 311.22) rotate(-44.56)"/>
          <rect class="cls-30" x="426.25" y="28.47" width="6.69" height=".97" transform="translate(103.19 309.76) rotate(-44.56)"/>
          <rect class="cls-33" x="421.46" y="17.26" width="6.69" height="13.66" transform="translate(105.23 305) rotate(-44.56)"/>
        </g>
        <path class="cls-17" d="M36.08,128.48c.57-.94,2.15-2.07,3.72-2.07,2.15,0,4,1.71,4,3.86,0,4.59-5.51,8.48-7.72,10.23-2.21-1.75-7.72-5.65-7.72-10.23,0-2.15,1.85-3.86,4-3.86,1.59,0,3.16,1.13,3.72,2.07Z"/>
        <path class="cls-5" d="M68.31,15.47c.57-.94,2.15-2.07,3.72-2.07,2.15,0,4,1.71,4,3.86,0,4.59-5.51,8.48-7.72,10.23-2.21-1.75-7.72-5.65-7.72-10.23,0-2.15,1.85-3.86,4-3.86,1.59,0,3.16,1.13,3.72,2.07Z"/>
        <path class="cls-28" d="M443.18,95.74c.57-.94,2.15-2.07,3.72-2.07,2.15,0,4,1.71,4,3.86,0,4.59-5.51,8.48-7.72,10.23-2.21-1.75-7.72-5.65-7.72-10.23,0-2.15,1.85-3.86,4-3.86,1.59,0,3.16,1.13,3.72,2.07Z"/>
        <g>
          <path class="cls-5" d="M61.25,238.67c-1.82,1.4-4.31,3.31-6.31,4.84-2,1.53-2.98-.16-2.98-.16l-8.92-11.63c-.3-.39-.22-.95.16-1.24l8.33-6.39c.39-.3.95-.22,1.24.16l8.84,11.53s1.46,1.49-.37,2.88Z"/>
          <rect class="cls-33" x="39.83" y="225.77" width="15.09" height="2.56" transform="translate(-128.38 75.71) rotate(-37.48)"/>
          <rect class="cls-33" x="47.26" y="229.52" width="9.91" height="8.17" transform="translate(-131.37 80) rotate(-37.48)"/>
          <rect class="cls-32" x="48.28" y="233.17" width="7.71" height=".67" transform="translate(-131.33 79.94) rotate(-37.48)"/>
          <rect class="cls-32" x="46.91" y="231.38" width="7.71" height=".67" transform="translate(-130.52 78.73) rotate(-37.48)"/>
          <rect class="cls-32" x="49.56" y="234.84" width="7.71" height=".67" transform="translate(-132.08 81.06) rotate(-37.48)"/>
        </g>
        <g>
          <path class="cls-5" d="M187.72,35.39c11.38-9,10.84-8.57,22.22-17.57.52-3.87-3.67-9.41-7.58-9.58-11.38,9-10.84,8.58-22.22,17.57-.73,3.84,3.69,9.19,7.58,9.58h0ZM207.68,17.28c-.49.38-1.19.3-1.57-.18-.38-.48-.3-1.19.18-1.57.49-.38,1.19-.3,1.57.18.38.49.3,1.19-.18,1.57h0ZM205.71,14.79c-.49.38-1.19.3-1.57-.18-.38-.49-.3-1.19.18-1.57.49-.38,1.19-.3,1.57.18.38.49.3,1.19-.18,1.57h0ZM203.75,12.31c-.48.38-1.19.3-1.57-.18-.38-.49-.3-1.19.18-1.57.49-.38,1.19-.3,1.57.18.38.49.3,1.19-.18,1.57h0ZM204.39,17.86c-.49.38-1.19.3-1.57-.18-.38-.48-.3-1.19.18-1.57.48-.38,1.19-.3,1.57.18.38.49.3,1.19-.18,1.57h0ZM202.43,15.37c-.48.38-1.19.3-1.57-.18-.38-.49-.3-1.19.18-1.57.48-.38,1.19-.3,1.57.18.38.48.3,1.19-.18,1.57h0ZM202.95,21.03c-.49.38-1.19.3-1.57-.18-.38-.48-.3-1.19.18-1.57.48-.38,1.19-.3,1.57.18.38.49.3,1.19-.18,1.57h0ZM200.98,18.54c-.49.38-1.19.3-1.57-.18-.38-.49-.3-1.19.18-1.57.48-.38,1.19-.3,1.57.18.38.49.3,1.19-.18,1.57h0ZM199.01,16.05c-.49.38-1.19.3-1.57-.18-.38-.48-.3-1.19.18-1.57.49-.38,1.19-.3,1.57.18.38.48.3,1.19-.18,1.57h0ZM192.45,29.33c-.49.38-1.19.3-1.57-.18-.38-.48-.3-1.19.18-1.57.49-.38,1.19-.3,1.57.18.38.49.3,1.19-.18,1.57h0ZM190.49,26.84c-.49.38-1.19.3-1.57-.18-.38-.49-.3-1.19.18-1.57.48-.38,1.19-.3,1.57.18.38.49.3,1.19-.18,1.57h0ZM188.52,24.35c-.48.38-1.19.3-1.57-.18-.38-.49-.3-1.19.18-1.57.48-.38,1.19-.3,1.57.18.38.49.3,1.19-.18,1.57h0ZM189.17,29.9c-.48.38-1.19.3-1.57-.18-.38-.48-.3-1.19.18-1.57.49-.38,1.19-.3,1.57.18.38.48.3,1.19-.18,1.57h0ZM187.2,27.42c-.48.38-1.19.3-1.57-.18-.38-.49-.3-1.19.18-1.57.48-.38,1.19-.3,1.57.18.38.48.3,1.19-.18,1.57h0ZM187.72,33.07c-.48.38-1.19.3-1.57-.18-.38-.48-.3-1.19.18-1.57.48-.38,1.19-.3,1.57.18.38.48.3,1.19-.18,1.57h0ZM185.75,30.58c-.49.38-1.19.3-1.57-.18-.38-.49-.3-1.19.18-1.57.49-.38,1.19-.3,1.57.18.38.48.3,1.19-.18,1.57h0ZM183.78,28.09c-.48.38-1.19.3-1.57-.18-.38-.48-.3-1.19.18-1.57.48-.38,1.19-.3,1.57.18.38.48.3,1.19-.18,1.57Z"/>
          <rect class="cls-34" x="190.86" y="16.98" width="8.35" height="9.66" rx=".91" ry=".91" transform="translate(28.53 125.68) rotate(-38.34)"/>
        </g>
        <g>
          <path class="cls-12" d="M324.15,21.47c-5.3,2.55-12.97.37-16.18-2.5-3.21-2.87-3.56-5.65-5.81-7.42-1.58-1.25-2.81-1.02-3.88-2.02-1.09-1.02-1.95-2.52-1.08-2.07,1.97,1.01,3.81-1.02,6.61,1.22,2.8,2.24,3.96,4.35,7.06,5,3.1.65,10.62,1.38,13.28,7.79Z"/>
          <path class="cls-17" d="M324.15,21.47c-5.3,2.55-13.29,1.87-16.51-1-3.21-2.88-3.24-7.15-5.49-8.93-1.58-1.25-2.85-1.02-4.07-2.17-.74-.7-1.89-2.74-.8-1.45,1.04,1.23,2.8,1.05,3.95,1.65,8.89,4.68,8.58,9.4,22.92,11.9Z"/>
          <path class="cls-25" d="M304.95,11.77c8.81,7.33,11.38,7.7,25.52,9.45.59.07.79,1.05-.04,1.02-14.69-.42-21.12-5.93-26.03-10.32-.49-.44-.04-.64.55-.15Z"/>
        </g>
        <g>
          <path class="cls-12" d="M46,65.29c-5.87-.33-12.13,4.6-14,8.48-1.87,3.88-1.14,6.58-2.54,9.08-.98,1.76-2.21,2.01-2.82,3.35-.62,1.36-.85,3.07-.21,2.32,1.44-1.69,3.91-.51,5.65-3.65,1.74-3.14,2-5.53,4.62-7.32,2.62-1.78,9.3-5.33,9.3-12.27Z"/>
          <path class="cls-17" d="M46,65.29c-5.87-.33-13,3.34-14.88,7.22-1.87,3.88-.27,7.84-1.67,10.34-.98,1.76-2.25,2.03-2.94,3.56-.42.93-.7,3.26-.19,1.65.49-1.54,2.19-2.04,3.02-3.03,6.43-7.72,4.34-11.96,16.65-19.74Z"/>
          <path class="cls-25" d="M31.94,81.57c5.35-10.14,7.58-11.45,19.99-18.46.51-.29.33-1.27-.43-.93-13.42,5.99-17.26,13.53-20.13,19.46-.29.59.21.61.56-.07Z"/>
        </g>
        <polygon class="cls-5" points="455.35 137.34 459.44 137.34 459.44 141.43 463.53 141.43 463.53 145.52 459.44 145.52 459.44 149.61 455.35 149.61 455.35 145.52 451.26 145.52 451.26 141.43 455.35 141.43 455.35 137.34"/>
        <polygon class="cls-5" points="233.21 5.72 237.29 5.72 237.29 9.81 241.38 9.81 241.38 13.9 237.29 13.9 237.29 17.98 233.21 17.98 233.21 13.9 229.12 13.9 229.12 9.81 233.21 9.81 233.21 5.72"/>
        <polygon class="cls-5" points="39.68 93.12 43.76 93.12 43.76 97.21 47.85 97.21 47.85 101.3 43.76 101.3 43.76 105.38 39.68 105.38 39.68 101.3 35.59 101.3 35.59 97.21 39.68 97.21 39.68 93.12"/>
      </g>
    </g>
  </g>
</svg>