<?xml version="1.0" encoding="UTF-8"?>
<svg xmlns="http://www.w3.org/2000/svg" viewBox="0 0 95.47 210.97">
  <defs>
    <style>
      .cls-1 {
        mix-blend-mode: multiply;
        opacity: .5;
      }

      .cls-2 {
        fill: #ffc197;
      }

      .cls-3 {
        fill: #21c9d6;
      }

      .cls-4 {
        isolation: isolate;
      }

      .cls-5 {
        fill: #f2ad7e;
      }

      .cls-6 {
        fill: #0a939c;
      }

      .cls-7 {
        fill: #007d87;
      }

      .cls-8 {
        fill: #f4676e;
      }

      .cls-9 {
        fill: #143658;
      }

      .cls-10 {
        fill: #0fa5b7;
      }
    </style>
  </defs>
  <g class="cls-4">
    <g id="Calque_2" data-name="Calque 2">
      <g id="OBJECTS">
        <g>
          <g>
            <g>
              <g>
                <polygon class="cls-10" points="47.76 119.99 47.59 132.65 46.75 138.5 38.1 199.12 25.81 199.12 22.49 141.98 21.21 119.99 47.76 119.99"/>
                <polygon class="cls-3" points="25.82 199.12 26.89 205.32 17.05 210.97 37.77 210.97 38.1 199.12 25.82 199.12"/>
              </g>
              <polygon class="cls-7" points="24.69 201.73 24.69 195.18 40.65 195.18 39.81 201.73 24.69 201.73"/>
            </g>
            <g>
              <g>
                <polygon class="cls-10" points="74.31 119.99 73.45 134.67 69.7 199.12 57.42 199.12 48.72 138.22 47.92 132.65 47.76 119.99 74.31 119.99"/>
                <g class="cls-1">
                  <polygon class="cls-7" points="21.21 119.99 47.76 119.99 47.59 132.65 46.75 138.5 22.49 141.98 21.21 119.99"/>
                </g>
                <g class="cls-1">
                  <polygon class="cls-7" points="74.31 119.99 73.45 134.67 48.72 138.22 47.92 132.65 47.76 119.99 74.31 119.99"/>
                </g>
                <polygon class="cls-3" points="69.7 199.12 68.62 205.32 78.47 210.97 57.74 210.97 57.42 199.12 69.7 199.12"/>
              </g>
              <polygon class="cls-7" points="70.83 201.73 70.83 195.18 54.87 195.18 55.71 201.73 70.83 201.73"/>
            </g>
          </g>
          <g>
            <g>
              <path class="cls-5" d="M74.26,80.58l14.16,4.37s1.83,6.34,2.98,15.92c-3.83-.12-7.67-.1-11.51-.11-1.69-7.97-3.63-15.48-5.64-20.18Z"/>
              <path class="cls-2" d="M91.41,100.87c1.14,9.43,1.63,22.01-.93,34.78h-4.63s-2.46-18.44-5.95-34.88c3.84,0,7.68,0,11.51.11Z"/>
              <path class="cls-3" d="M77.41,153.43c.18-.19.44-.26.69-.35,3.11-1.03,5.3-4.35,5.02-7.61-.6,1.05-1.44,1.95-2.44,2.63-.46.31-1.06.58-1.56.33-.81-.42-.5-1.64-.07-2.44,1.12-2.05,2.34-4.04,3.66-5.97l-1.19-13.34,13.94,1.16s-2.37,12.72-2.55,15.13c-.11,1.39-.24,2.86-1.05,3.99-.82,1.15-2.31,1.78-3.71,1.57-.16.95-.43,1.93-1.05,2.67-.62.74-1.67,1.19-2.58.88-.91,2.2-3.44,3.6-5.79,3.2-.46-.08-.94-.23-1.25-.58-.31-.35-.39-.94-.07-1.27Z"/>
              <path class="cls-10" d="M69.18,53.03v20.69c2.19,4.31,3.64,8.31,4.6,11.62,2.76-5.97,6.6-11.43,11.18-16.2-7.2-10.44-15.78-16.12-15.78-16.12Z"/>
              <path class="cls-3" d="M73.78,85.34c1.58,5.48,1.81,9.07,1.81,9.07h18.85c-.93-10.18-4.93-18.67-9.48-25.27-4.59,4.76-8.43,10.23-11.18,16.2Z"/>
            </g>
            <g>
              <polygon class="cls-3" points="77.75 127.26 17.77 127.26 26.29 53.03 69.22 53.03 77.75 127.26"/>
              <polygon class="cls-6" points="57.23 55.19 47.14 68.11 36.48 55.19 36.37 53.03 56.79 53.03 57.23 55.19"/>
              <g>
                <polyline class="cls-5" points="37.6 29.31 38.77 53.03 46.89 62.87 54.58 53.03 52.61 43.45"/>
                <path class="cls-9" d="M34.27,13.32c.36-3.45,3.31-5.54,6.04-5.99,1.2-.2,2.44-.19,3.6-.67,1.15-.48,2.25-1.59,2.42-3.11.59.71,1.11,1.5,1.57,2.35.81-1.79,1.23-3.85,1.19-5.91,1.04,1.29,1.8,2.94,2.18,4.72.45-1.13.9-2.26,1.34-3.39.14-.35.3-.73.58-.9.39-.23.85.02,1.22.31,3.73,2.84,3.89,8.49,2.81,13.82"/>
                <path class="cls-9" d="M62.97,29.5s5.43-14.13-5.32-17.53l-3.06.64,8.38,16.89Z"/>
                <path class="cls-2" d="M35.66,12.93s-7.18,35.67,14.58,35.67c23.62,0,10.15-26.88,6.89-35.67h-21.47Z"/>
                <path class="cls-9" d="M39.47,23.93c.69-2.85.52-5.96-.82-8.57-.45-.88-1.05-1.72-1.89-2.25-.84-.53-1.96-.69-2.83-.21-.45.24-.8.62-1.12,1.02-2.13,2.64-3.13,6.17-2.7,9.53.28,2.17,1.87,7.2,4.33,7.95,2.4.73,4.59-5.72,5.01-7.46Z"/>
                <path class="cls-6" d="M34.48,28.2c1.88.39,3.05,1.82,3.83,3.48.65,1.37.95,2.93,1.74,4.23.26.42.92.04.66-.39-.61-1.02-.9-2.23-1.34-3.32-.54-1.33-1.22-2.68-2.34-3.61-.68-.57-1.47-.96-2.34-1.13-.48-.1-.69.64-.2.74h0Z"/>
                <path class="cls-6" d="M37.14,41.41c.62.93,1.21,1.88,1.88,2.77.6.8,1.3,1.55,2.2,2.02.44.23.83-.44.39-.66-.83-.43-1.47-1.12-2.02-1.86-.63-.86-1.2-1.76-1.79-2.65-.27-.41-.94-.02-.66.39h0Z"/>
                <path class="cls-2" d="M37.35,30.43c-1.02-1.76-2.26-3.5-4.06-4.45-1.8-.95-4.28-.88-5.63.65-.87.99-1.12,2.4-1.03,3.72.19,2.58,1.73,5.11,4.11,6.14,2.38,1.03,5.49.27,6.86-1.93"/>
                <path class="cls-8" d="M51.49,20.19c2.03-.12,3.95,13.99,3.95,13.99h-4.78s-2.57-13.78.83-13.99Z"/>
                <path class="cls-9" d="M35.33,32.5c-.81-2.65-3.2-4.51-5.96-4.67-.49-.03-.49.74,0,.77,1.46.08,2.8.73,3.79,1.73-.01.03-.03.05-.04.08-.06.05-.13.1-.19.15-.1.09-.2.19-.29.29-.19.21-.36.45-.5.7-.28.52-.43,1.09-.43,1.68,0,.21.18.38.38.38s.38-.18.38-.38c0-.34.05-.6.17-.95,0-.02.04-.11.04-.11,0,0,.03-.07.04-.09.04-.08.08-.16.12-.24.08-.14.18-.28.26-.38.11-.13.23-.25.36-.37.07-.06.07-.06.15-.12.02-.01.04-.03.06-.05.39.53.71,1.12.91,1.77.14.47.89.27.74-.2Z"/>
                <g>
                  <path class="cls-9" d="M46.36,29.5c0,.92-.75,1.67-1.67,1.67s-1.67-.75-1.67-1.67.75-1.67,1.67-1.67,1.67.75,1.67,1.67Z"/>
                  <path class="cls-9" d="M60.44,29.5c0,.92-.75,1.67-1.67,1.67s-1.67-.75-1.67-1.67.75-1.67,1.67-1.67,1.67.75,1.67,1.67Z"/>
                </g>
              </g>
              <path class="cls-3" d="M39.67,34.17s-1.33,5.97,1.56,11.91c0,0,15.26,2.94,20.76-.73,0,0,4.3-3.91,1.73-11.74,0,0-13.47-2.5-24.04.56Z"/>
            </g>
            <g>
              <path class="cls-5" d="M21.21,80.58l-14.16,4.37s-1.83,6.34-2.98,15.92c3.83-.12,7.67-.1,11.51-.11,1.69-7.97,3.63-15.48,5.64-20.18Z"/>
              <path class="cls-2" d="M4.06,100.87c-1.14,9.43-1.63,22.01.93,34.78h4.63s2.46-18.44,5.95-34.88c-3.84,0-7.68,0-11.51.11Z"/>
              <path class="cls-3" d="M18.06,153.43c-.18-.19-.44-.26-.69-.35-3.11-1.03-5.3-4.35-5.02-7.61.6,1.05,1.44,1.95,2.44,2.63.46.31,1.06.58,1.56.33.81-.42.5-1.64.07-2.44-1.12-2.05-2.34-4.04-3.66-5.97l1.19-13.34-13.94,1.16s2.37,12.72,2.55,15.13c.11,1.39.24,2.86,1.05,3.99.82,1.15,2.31,1.78,3.71,1.57.16.95.43,1.93,1.05,2.67.62.74,1.67,1.19,2.58.88.91,2.2,3.44,3.6,5.79,3.2.46-.08.94-.23,1.25-.58.31-.35.39-.94.07-1.27Z"/>
              <path class="cls-3" d="M26.29,53.03S3.45,68.11,1.03,94.41h18.85s.6-9.27,6.41-20.69v-20.69Z"/>
            </g>
          </g>
        </g>
      </g>
    </g>
  </g>
</svg>