<?xml version="1.0" encoding="UTF-8"?>
<svg id="Calque_1" data-name="Calque 1" xmlns="http://www.w3.org/2000/svg" viewBox="0 0 133.69 163.87">
  <defs>
    <style>
      .cls-1 {
        fill: #fff;
      }

      .cls-1, .cls-2, .cls-3 {
        stroke-linecap: round;
      }

      .cls-1, .cls-3 {
        stroke: #064672;
        stroke-linejoin: round;
        stroke-width: 4px;
      }

      .cls-4 {
        fill: #064672;
      }

      .cls-5 {
        fill: #e83f35;
      }

      .cls-2 {
        stroke: #fff;
        stroke-miterlimit: 10;
        stroke-width: 8.25px;
      }

      .cls-2, .cls-3 {
        fill: none;
      }
    </style>
  </defs>
  <ellipse class="cls-3" cx="75.09" cy="71.71" rx="40.19" ry="47.2"/>
  <path class="cls-3" d="M75.09,118.91v20.63c0,12.33-10,22.33-22.33,22.33h0c-15.74,0-28.05-5.42-34.31-46.64"/>
  <g>
    <circle class="cls-1" cx="18.45" cy="118.66" r="16.45"/>
    <circle class="cls-4" cx="18.45" cy="118.66" r="7.85"/>
  </g>
  <g>
    <path class="cls-4" d="M111.44,56.94c-23.65-6.02-49.04-6.02-72.68,0-2.58.66-5.25-.67-6.34-3.09-5.15-11.49-10.3-22.98-15.45-34.47-1.28-2.85.09-6.19,3-7.32C30.31,8.04,53.85-.2,73.54.03c21.15-.64,45.96,7.91,56.65,12.03,2.92,1.13,4.3,4.47,3.02,7.33-5.15,11.49-10.29,22.97-15.44,34.46-1.09,2.43-3.76,3.75-6.34,3.09Z"/>
    <g>
      <line class="cls-2" x1="75.09" y1="13.57" x2="75.09" y2="40.49"/>
      <line class="cls-2" x1="88.55" y1="27.03" x2="61.63" y2="27.03"/>
    </g>
  </g>
  <path class="cls-5" d="M75.09,75.86s2.14-9.63,10.35-9.63c6.13,0,10.35,5.2,10.35,11.26,0,7.01-5.76,15.31-20.7,22.52-14.95-7.21-20.7-15.51-20.7-22.52,0-6.06,4.22-11.26,10.35-11.26,8.21,0,10.35,9.63,10.35,9.63Z"/>
</svg>