<?xml version="1.0" encoding="UTF-8"?>
<svg id="Calque_1" data-name="Calque 1" xmlns="http://www.w3.org/2000/svg" viewBox="0 0 322 301.01">
  <defs>
    <style>
      .cls-1 {
        fill: #fff;
      }

      .cls-2 {
        fill: #7f1512;
      }
    </style>
  </defs>
  <path class="cls-2" d="M322,100v14l-4.87,29.63c-12.92,50.97-60.59,100.88-102.81,130.19-15.93,11.05-32.98,20.69-51.31,27.19h-2c-30.8-11.7-59.13-30.04-84.01-51.49C27.91,207.21-9.37,149.66,3.29,81.79,17.62,5.06,101.77-24.01,159.5,28.93c62.92-60.99,160.26-15.55,161.58,69.48l.92,1.59h0ZM138.94,54.98l13.06-19.45C112.64-1.2,51.48,5.34,24.48,52.98c-51.94,91.63,48.06,201.49,128.85,234.19,9.23,3.74,8.96,3.44,18.03-.32,64.19-26.58,140.97-107.26,140.73-180.35-.2-59.61-49.58-112.46-111.6-91.52-11.75,3.97-24.47,12.11-32.41,21.38,27.45,27.41,48.11,61.42,59.39,98.67,10.93,1.45,22.02,6.49,27.35,16.65,16.14,30.73-20.87,61.94-48.15,40.15-19.77-15.79-13.28-46.45,9.91-54.79,1.39-1.94-6.85-22.14-8.41-25.71-10.91-24.9-28.06-50.39-48.54-68.25-1.95.34-11.64,13.39-11.65,15.44,6.84,8.04,13,13.95,16.78,24.23,10.01,27.22-.62,86.92-18.78,109.74-7.99,10.04-31.09,17.93-38.82,4.87-8.44-14.26,10.92-23.77,22.84-16.84l8.01,6.01c16.53-28.11,33.3-84.58,10.51-112.53-20.22-24.8-49.95-4.32-66.03,14-14.61,16.66-26.27,39.18-32.39,60.44,5.72,2.98,11.31,2.1,16.31,7.67,13.36,14.92-6.47,32-18.92,16.92-15.85-19.19-.83-48.11,9.72-66.33,15.74-27.21,46.5-62.46,81.74-51.72h0ZM222.73,145.24c-27.71,4.66-22.27,48.8,8.53,43.52,28.06-4.81,20.25-48.36-8.53-43.52ZM52,160.01c-.83,3.63,5.36,12.55,8.56,8.05,2.76-3.89-4.73-9.17-8.56-8.05ZM115.1,189.09c-3.32,7.25,13.38,5.81,13.89,3.39-1.8-5.27-9.51-5.25-13.89-3.39Z"/>
  <path class="cls-1" d="M161,301H0V0h322v100l-.92-1.59c-1.31-85.03-98.65-130.47-161.58-69.48C101.77-24.01,17.62,5.06,3.29,81.79c-12.67,67.87,24.62,125.42,73.69,167.72,24.88,21.45,53.22,39.79,84.01,51.49h0Z"/>
  <path class="cls-1" d="M322,114v187h-159c18.33-6.5,35.39-16.13,51.31-27.19,42.23-29.3,89.9-79.22,102.81-130.19l4.87-29.63h.01Z"/>
  <path class="cls-1" d="M138.94,54.98c-35.24-10.74-66,24.51-81.74,51.72-10.54,18.22-25.57,47.14-9.72,66.33,12.45,15.07,32.28-2,18.92-16.92-4.99-5.57-10.58-4.69-16.31-7.67,6.13-21.26,17.78-43.78,32.39-60.44,16.07-18.32,45.8-38.79,66.03-14,22.8,27.95,6.02,84.41-10.51,112.53l-8.01-6.01c-11.93-6.93-31.29,2.58-22.84,16.84,7.73,13.06,30.84,5.16,38.82-4.87,18.16-22.82,28.79-82.52,18.78-109.74-3.78-10.27-9.93-16.18-16.78-24.23.02-2.05,9.7-15.1,11.65-15.44,20.48,17.86,37.63,43.35,48.54,68.25,1.56,3.57,9.8,23.77,8.41,25.71-23.18,8.34-29.68,38.99-9.91,54.79,27.28,21.79,64.29-9.42,48.15-40.15-5.33-10.16-16.42-15.19-27.35-16.65-11.29-37.25-31.94-71.26-59.39-98.67,7.93-9.26,20.65-17.41,32.41-21.38,62.02-20.94,111.41,31.91,111.6,91.52.24,73.09-76.53,153.77-140.73,180.35-9.07,3.76-8.8,4.05-18.03.32C72.54,254.47-27.45,144.61,24.48,52.98,51.48,5.34,112.64-1.2,152,35.53l-13.06,19.45Z"/>
  <path class="cls-1" d="M222.73,145.24c28.78-4.84,36.59,38.71,8.53,43.52-30.8,5.28-36.24-38.86-8.53-43.52ZM221.71,152.21c-13.22,2.98-15.13,25.3.85,29.72,24.81,6.86,26.99-36-.85-29.72Z"/>
  <path class="cls-1" d="M115.1,189.09c4.38-1.86,12.1-1.88,13.89,3.39-.51,2.42-17.22,3.86-13.89-3.39Z"/>
  <path class="cls-1" d="M52,160.01c3.82-1.11,11.32,4.16,8.56,8.05-3.19,4.5-9.38-4.42-8.56-8.05Z"/>
  <path class="cls-2" d="M221.71,152.21c27.84-6.27,25.66,36.58.85,29.72-15.98-4.42-14.06-26.74-.85-29.72ZM222.26,171.74c6.11,5.8,15.67-4.57,8.32-9.81-6.54-4.67-13.84,4.57-8.32,9.81h0Z"/>
  <path class="cls-1" d="M222.26,171.74c-5.52-5.24,1.78-14.48,8.32-9.81,7.35,5.24-2.21,15.61-8.32,9.81h0Z"/>
</svg>