<?xml version="1.0" encoding="UTF-8"?>
<svg xmlns="http://www.w3.org/2000/svg" viewBox="0 0 193.43 164.65">
  <defs>
    <style>
      .cls-1 {
        fill: #c6c6c6;
      }

      .cls-1, .cls-2, .cls-3 {
        mix-blend-mode: multiply;
      }

      .cls-4 {
        fill: #8c1f14;
      }

      .cls-5 {
        isolation: isolate;
      }

      .cls-6, .cls-3 {
        fill: #dadada;
      }

      .cls-7 {
        mix-blend-mode: soft-light;
      }

      .cls-7, .cls-8 {
        fill: #fff;
      }

      .cls-2, .cls-9 {
        fill: #b2b2b2;
      }

      .cls-10 {
        fill: none;
        stroke: #d42a26;
        stroke-miterlimit: 10;
        stroke-width: 1.93px;
      }

      .cls-11 {
        fill: #d42a26;
      }
    </style>
  </defs>
  <g class="cls-5">
    <g id="Calque_2" data-name="Calque 2">
      <g id="Capa_1" data-name="Capa 1">
        <g>
          <ellipse class="cls-1" cx="90.71" cy="147.55" rx="90.71" ry="17.1"/>
          <path class="cls-10" d="M140.55,111.21c0,.09-3.8,4.04-2.41,4.33.63.13,2.73-7.27,3.59-7.14.69.11.47,7.79,1.29,7.88.72.08,2.17-7.47,2.98-7.41.73.05,1.08,7.74,1.87,7.77.74.03,1.65-7.61,2.43-7.61s1.66,7.64,2.44,7.61c.75-.03,1.07-7.71,1.85-7.77.75-.06,2.27,7.48,3.04,7.39.75-.09.42-7.77,1.18-7.9.75-.13,2.95,7.24,3.7,7.08.74-.16-.35-7.77.39-7.98.73-.2,3.71,6.89,4.44,6.64.72-.24-1.24-7.68-.53-7.97.71-.29,4.54,6.37,5.23,6.03.68-.34-2.26-7.43-1.6-7.82.66-.38,5.41,5.65,6.05,5.21.62-.43-3.37-7-2.77-7.48.59-.48,6.25,4.72,6.8,4.18.54-.53-4.48-6.34-3.97-6.93.5-.57,6.94,3.61,7.4,2.99.45-.61-5.47-5.51-5.06-6.17.39-.64,7.43,2.44,7.79,1.75.34-.67-6.27-4.59-5.97-5.31.29-.69,7.71,1.32,7.96.58.24-.71-6.84-3.68-6.64-4.44.2-.72,7.81.33,7.97-.44.15-.73-7.21-2.99-7.09-3.76.26-1.37,7.75.34,8.04-1.41.13-.78-7.29-2.87-7.14-3.92.12-.85,7.83-.82,7.94-1.81.1-.88-7.42-2.57-7.33-3.55.08-.89,7.78-1.25,7.84-2.21.06-.9-7.54-2.21-7.51-3.16.03-.91,7.7-1.69,7.71-2.63,0-.92-7.65-1.78-7.68-2.72-.02-.92,7.58-2.18,7.53-3.12-.05-.92-7.75-1.26-7.84-2.19-.09-.93,7.4-2.75,7.27-3.68-.13-.92-7.83-.61-8-1.52-.17-.92,7.11-3.45,6.88-4.36-.22-.91-7.84.24-8.12-.65-.28-.9,6.63-4.31,6.29-5.17-.34-.87-7.72,1.34-8.12.5-.41-.84,5.86-5.32,5.38-6.12-.49-.8-7.33,2.73-7.89,1.99-.56-.74,4.64-6.42,3.99-7.09-.64-.67-6.5,4.32-7.23,3.73-.72-.58,2.95-7.34,2.15-7.84-.78-.48-5.21,5.81-6.07,5.41-.83-.38,1.08-7.84.17-8.13-.86-.28-3.72,6.87-4.67,6.67-.88-.19-.59-7.88-1.55-7.99-.9-.1-2.37,7.46-3.33,7.43-.9-.03-1.88-7.67-2.85-7.63-.9.04-1.28,7.74-2.24,7.83"/>
          <g>
            <g>
              <g>
                <path class="cls-11" d="M12.58,29.99S-.81,42.88,6.09,63.94l22.75.12,3.53.02,22.75.12c7.12-20.99-6.13-34.02-6.13-34.02,0,0-17.65-14.93,35.71-11.78L84.8,0S38.32-.94,12.58,29.99Z"/>
                <path class="cls-1" d="M52.08,54.12c-6.52,1.86-13.68,2.34-20.34.9-6.58-1.42-10.64-3.79-14.69-8.65-2.46-2.95-8.66-12.49-4.47-16.38,0,0-13.38,12.9-6.49,33.96l49.03.26c1.48-4.35,2.07-8.36,2.1-11.99-1.67.77-3.41,1.41-5.13,1.9Z"/>
                <g>
                  <path class="cls-4" d="M4.29,58.33c-.07.3-.1.61-.1.93l-.02,3.03c-.01,2.52,2.02,4.57,4.53,4.58l43.88.23c2.52.01,4.57-2.02,4.58-4.53l.02-3.03c0-.32-.03-.63-.09-.93l-52.79-.28Z"/>
                  <path class="cls-1" d="M30.37,63.97c-4.23-.76-9.06-1.7-12.7-4.13-.62-.41-1.26-.9-1.83-1.45l-11.61-.06c-.06.3-.1.61-.1.93l-.02,3.03c-.01,2.52,2.02,4.57,4.53,4.58l43.88.23c2.52.01,4.57-2.02,4.58-4.53v-2.27c-2.92,1.61-6.25,2.46-9.49,3.24-5.86,1.43-11.38,1.48-17.25.43Z"/>
                </g>
                <path class="cls-7" d="M4.67,58.33l51.92.28c.13-.71.24-1.41.33-2.1l-52.56-.28c.08.69.18,1.39.31,2.1Z"/>
                <path class="cls-7" d="M45.15,32.5l-8.35-.04c3.49,4.99,7.33,12.31,7.15,20.15,5.4-.75,8.81-3.02,8.81-3.02.75-8.99-7.62-17.09-7.62-17.09Z"/>
              </g>
              <g>
                <path class="cls-11" d="M159.12,30.77s13.25,13.04,6.13,34.02l-22.75-.12-3.54-.02-22.75-.12c-6.9-21.06,6.49-33.96,6.49-33.96,0,0,14.83-14.76-38.57-12.18L84.25,0s49.46-.44,74.88,30.76Z"/>
                <path class="cls-1" d="M119.37,54.47c6.5,1.93,13.66,2.48,20.33,1.12,6.59-1.35,10.68-3.68,14.78-8.5,2.49-2.92,8.79-12.4,4.64-16.33,0,0,13.25,13.04,6.13,34.02l-49.03-.26c-1.43-4.37-1.99-8.38-1.97-12.01,1.66.79,3.39,1.44,5.11,1.95Z"/>
                <g>
                  <path class="cls-4" d="M167.11,59.19c.06.3.09.61.09.93l-.02,3.04c-.01,2.52-2.06,4.55-4.58,4.53l-43.88-.23c-2.52-.01-4.54-2.06-4.53-4.58l.02-3.03c0-.32.04-.63.1-.93l52.79.28Z"/>
                  <path class="cls-1" d="M140.97,64.56c4.24-.72,9.08-1.61,12.74-3.99.63-.41,1.27-.89,1.84-1.43l11.61.06c.06.3.09.62.09.93l-.02,3.03c-.01,2.52-2.06,4.55-4.58,4.53l-43.88-.23c-2.52-.01-4.54-2.06-4.53-4.58v-2.27c2.93,1.65,6.25,2.52,9.48,3.34,5.85,1.49,11.37,1.6,17.24.61Z"/>
                </g>
                <path class="cls-7" d="M166.73,59.19l-51.92-.28c-.13-.71-.23-1.41-.31-2.1l52.56.28c-.09.69-.2,1.39-.33,2.1Z"/>
                <path class="cls-7" d="M126.52,32.93l8.35.04c-3.54,4.96-7.46,12.24-7.36,20.08-5.39-.81-8.78-3.11-8.78-3.11-.65-9,7.8-17.01,7.8-17.01Z"/>
              </g>
            </g>
            <g>
              <path class="cls-4" d="M143.47,141.24c-.03,5-3.5,9.04-7.76,9.02l-100.99-.54c-4.26-.02-7.69-4.1-7.67-9.1l.06-10.8c.03-5,3.5-9.04,7.76-9.02l100.99.54c4.26.02,7.69,4.1,7.67,9.1l-.06,10.8Z"/>
              <path class="cls-1" d="M126.89,144.27c-13.51,3.22-27.52,4.42-41.38,3.71-7.46-.39-14.92-1.22-22.27-2.54-5.41-.97-11.14-2.74-15.55-6.13-4.81-3.7-8.35-8.58-8.52-14.87-.03-1.2.03-2.41.17-3.62l-4.47-.02c-4.26-.02-7.74,4.01-7.76,9.02l-.06,10.8c-.03,5,3.4,9.08,7.67,9.1l100.99.54c4.26.02,7.73-4.02,7.76-9.02l.02-3.45c-5.05,3.05-10.74,5.09-16.6,6.49Z"/>
              <path class="cls-11" d="M130.35,51.72c.01-2.64-1.45-4.96-3.65-6.26l-82.98-.44c-1.84,1.33-3.03,3.42-3.04,5.79l-13.52,71.75c-.02,4.05,3.41,7.35,7.67,7.37l100.99.54c4.26.02,7.73-3.24,7.75-7.29l-13.22-71.45Z"/>
              <path class="cls-7" d="M49.29,109.55c3.18-11.21,7.77-22.5,14.98-31.96,7.36-9.64,16.99-17.73,27.93-23.54,3.08-1.64,6.3-3.17,9.61-4.52l-53.95-.29c-1.65,1.2-2.73,3.08-2.74,5.21l-12.18,64.63c-.02,3.65,3.08,6.62,6.91,6.64l6.03.03c.75-5.48,1.9-10.91,3.41-16.22Z"/>
              <path class="cls-1" d="M130.35,51.72c.01-2.64-1.45-4.96-3.65-6.26l-10.12-.05c2.81,6.99,4.92,14.2,5.13,21.72.34,11.88-4.05,23.46-10.71,33.4-9.42,14.06-22.7,23.71-37.79,29.6l62.62.33c4.26.02,7.73-3.24,7.75-7.29l-13.22-71.45Z"/>
              <path class="cls-2" d="M88.64,57.55c-16.33-.09-29.64,13.08-29.72,29.41-.09,16.33,13.08,29.64,29.41,29.72,16.33.09,29.64-13.08,29.72-29.41s-13.08-29.64-29.41-29.72ZM88.4,103.3c-8.94-.05-16.15-7.33-16.1-16.27.05-8.94,7.33-16.15,16.27-16.1,8.94.05,16.15,7.33,16.1,16.27-.05,8.94-7.33,16.15-16.27,16.1Z"/>
              <g>
                <path class="cls-6" d="M69.52,95.85c-.01,2.13-1.75,3.85-3.88,3.84-2.13-.01-3.85-1.75-3.83-3.88.01-2.13,1.75-3.85,3.88-3.83,2.13.01,3.85,1.75,3.83,3.88Z"/>
                <path class="cls-3" d="M66.43,92.06c-.24-.05-.49-.08-.74-.08-2.13-.01-3.86,1.71-3.88,3.83-.01,2.13,1.71,3.86,3.83,3.88.65,0,1.27-.16,1.8-.44-2.43-1.45-2.77-5.12-1.02-7.19Z"/>
              </g>
              <path class="cls-8" d="M85.71,55.93c-16.33-.09-29.64,13.08-29.72,29.41-.09,16.33,13.08,29.64,29.41,29.72s29.64-13.08,29.72-29.41c.09-16.33-13.08-29.64-29.41-29.72ZM85.47,101.68c-8.94-.05-16.15-7.33-16.1-16.27.05-8.94,7.33-16.15,16.27-16.1,8.94.05,16.15,7.33,16.1,16.27-.05,8.94-7.33,16.15-16.27,16.1Z"/>
              <g>
                <path class="cls-6" d="M111.52,80.97c-.01,2.13-1.75,3.85-3.88,3.84-2.13-.01-3.85-1.75-3.83-3.88.01-2.13,1.75-3.85,3.88-3.83,2.13.01,3.85,1.75,3.83,3.88Z"/>
                <path class="cls-3" d="M107.98,80.15v-.16c0-1,.34-1.93.9-2.7-.38-.13-.78-.2-1.2-.2-2.13-.01-3.86,1.71-3.88,3.83-.01,2.13,1.71,3.87,3.83,3.88.89,0,1.72-.3,2.37-.8-1.23-.85-2.05-2.27-2.04-3.85Z"/>
              </g>
              <g>
                <path class="cls-6" d="M106.75,71.15c-.01,2.13-1.75,3.85-3.88,3.83-2.13-.01-3.85-1.75-3.84-3.88.01-2.13,1.75-3.85,3.88-3.83,2.13.01,3.85,1.75,3.83,3.88Z"/>
                <path class="cls-3" d="M103.65,67.35c-.24-.05-.49-.07-.74-.08-2.13-.01-3.87,1.71-3.88,3.83-.01,2.13,1.71,3.86,3.84,3.88.65,0,1.26-.16,1.8-.44-2.43-1.45-2.77-5.12-1.02-7.2Z"/>
              </g>
              <g>
                <path class="cls-6" d="M87.35,63.33c-.01,2.13-1.75,3.85-3.88,3.83-2.13-.01-3.85-1.75-3.83-3.88.01-2.13,1.75-3.85,3.88-3.84,2.13.01,3.85,1.75,3.83,3.88Z"/>
                <path class="cls-3" d="M84.25,59.53c-.24-.05-.49-.08-.74-.08-2.13-.01-3.87,1.71-3.88,3.84-.01,2.13,1.71,3.86,3.83,3.88.65,0,1.27-.16,1.8-.44-2.43-1.45-2.77-5.12-1.02-7.19Z"/>
              </g>
              <g>
                <path class="cls-6" d="M99.07,64.52c-.01,2.13-1.75,3.85-3.88,3.84-2.13-.01-3.85-1.75-3.83-3.88.01-2.13,1.75-3.85,3.88-3.84,2.13.01,3.85,1.75,3.83,3.88Z"/>
                <path class="cls-3" d="M95.98,60.72c-.24-.05-.49-.08-.74-.08-2.13-.01-3.86,1.71-3.88,3.84-.01,2.13,1.7,3.86,3.83,3.88.65,0,1.26-.16,1.8-.44-2.44-1.45-2.77-5.12-1.02-7.19Z"/>
              </g>
              <g>
                <path class="cls-6" d="M77.39,67.14c-.01,2.13-1.75,3.84-3.88,3.83-2.13-.01-3.85-1.75-3.84-3.88.01-2.13,1.75-3.85,3.88-3.83,2.13.01,3.85,1.75,3.83,3.88Z"/>
                <path class="cls-3" d="M74.29,63.34c-.24-.05-.49-.08-.74-.08-2.13-.01-3.87,1.71-3.88,3.83-.01,2.13,1.71,3.86,3.84,3.88.65,0,1.26-.16,1.8-.44-2.43-1.45-2.77-5.12-1.02-7.2Z"/>
              </g>
              <g>
                <path class="cls-6" d="M69.64,74.8c-.01,2.13-1.75,3.85-3.88,3.83-2.13-.01-3.85-1.75-3.83-3.88.01-2.13,1.75-3.85,3.88-3.83,2.13.01,3.85,1.75,3.84,3.88Z"/>
                <path class="cls-3" d="M66.54,71.01c-.24-.05-.49-.08-.74-.08-2.13-.01-3.86,1.71-3.88,3.83-.01,2.13,1.71,3.86,3.83,3.88.65,0,1.26-.16,1.8-.44-2.43-1.45-2.77-5.12-1.02-7.19Z"/>
              </g>
              <g>
                <path class="cls-6" d="M66.64,85.4c-.01,2.13-1.75,3.85-3.88,3.83-2.13-.01-3.85-1.75-3.84-3.88.01-2.13,1.75-3.85,3.88-3.84,2.13.01,3.85,1.75,3.83,3.88Z"/>
                <path class="cls-3" d="M63.54,81.59c-.24-.05-.49-.08-.74-.08-2.13-.01-3.86,1.71-3.88,3.84-.01,2.13,1.71,3.86,3.84,3.88.65,0,1.26-.16,1.81-.44-2.43-1.45-2.77-5.12-1.02-7.2Z"/>
              </g>
              <g>
                <path class="cls-6" d="M69.52,95.85c-.01,2.13-1.75,3.85-3.88,3.84-2.13-.01-3.85-1.75-3.83-3.88.01-2.13,1.75-3.85,3.88-3.83,2.13.01,3.85,1.75,3.83,3.88Z"/>
                <path class="cls-3" d="M66.43,92.06c-.24-.05-.49-.08-.74-.08-2.13-.01-3.86,1.71-3.88,3.83-.01,2.13,1.71,3.86,3.83,3.88.65,0,1.27-.16,1.8-.44-2.43-1.45-2.77-5.12-1.02-7.19Z"/>
              </g>
              <g>
                <path class="cls-6" d="M76.17,103.6c-.01,2.13-1.75,3.84-3.88,3.83-2.13-.01-3.85-1.75-3.84-3.87.01-2.13,1.75-3.85,3.88-3.84,2.13.01,3.85,1.75,3.83,3.88Z"/>
                <path class="cls-3" d="M73.07,99.8c-.24-.05-.49-.08-.74-.08-2.13-.01-3.87,1.71-3.88,3.84-.01,2.13,1.71,3.86,3.84,3.87.65,0,1.26-.16,1.8-.44-2.43-1.45-2.77-5.12-1.02-7.2Z"/>
              </g>
              <g>
                <path class="cls-6" d="M87.11,108.88c-.01,2.13-1.75,3.85-3.88,3.83-2.13-.01-3.85-1.75-3.84-3.88.01-2.13,1.75-3.85,3.88-3.84,2.13.01,3.85,1.75,3.84,3.88Z"/>
                <path class="cls-3" d="M84.01,105.08c-.24-.05-.49-.08-.74-.08-2.13,0-3.87,1.71-3.88,3.84-.01,2.13,1.71,3.86,3.84,3.88.65,0,1.27-.16,1.8-.44-2.43-1.45-2.77-5.12-1.02-7.2Z"/>
              </g>
              <g>
                <polygon class="cls-9" points="96.83 99.86 103.62 116.77 112.88 108.38 96.83 99.86"/>
                <path class="cls-2" d="M97.59,100.26l-.76-.4,6.78,16.91,6.47-5.86c-5.57-1.16-11.27-5.33-12.5-10.64Z"/>
              </g>
              <path class="cls-11" d="M103.27,29.35c1.65,3.54-1.07,7.98-1.07,7.98l-10.38-.05-12.02-.06-10.38-.06s-2.67-4.47-.98-7.99l-10.86-.06s-2.31,11.76,3.45,16l18.73.1,12.02.06,18.73.1c5.81-4.18,3.62-15.96,3.62-15.96l-10.86-.06Z"/>
              <path class="cls-1" d="M114.13,29.41l-4.87-.03c.25,3,.21,10.04-3.21,12.51l-15.34-.08-9.84-.05-15.34-.08c-3.39-2.5-3.36-9.55-3.08-12.54l-4.87-.03s-2.31,11.76,3.45,16l18.73.1,12.02.06,18.73.1c5.81-4.18,3.62-15.96,3.62-15.96Z"/>
              <path class="cls-7" d="M104.59,40.28c0,.36-.29.64-.65.64l-36.3-.19c-.35,0-.64-.29-.64-.65h0c0-.35.29-.64.65-.64l36.3.19c.35,0,.64.29.64.65h0Z"/>
            </g>
          </g>
        </g>
      </g>
    </g>
  </g>
</svg>